<?xml version="1.0" standalone="no"?>
<!DOCTYPE svg PUBLIC "-//W3C//DTD SVG 1.1//EN" "http://www.w3.org/Graphics/SVG/1.1/DTD/svg11.dtd" >
<svg xmlns="http://www.w3.org/2000/svg">
<metadata>Generated by IcoMoon</metadata>
<defs>
<font id="icomoon" horiz-adv-x="1024">
<font-face units-per-em="1024" ascent="960" descent="-64" />
<missing-glyph horiz-adv-x="1024" />
<glyph unicode="&#x20;" horiz-adv-x="512" d="" />
<glyph unicode="&#xe900;" glyph-name="workwithus" d="M448 696c8.837 0 16-7.163 16-16s-7.163-16-16-16h-336c-8.837 0-16 7.163-16 16s7.163 16 16 16h336zM448 632c8.837 0 16-7.163 16-16s-7.163-16-16-16h-336c-8.837 0-16 7.163-16 16s7.163 16 16 16h336zM448 568c8.837 0 16-7.163 16-16s-7.163-16-16-16h-336c-8.837 0-16 7.163-16 16s7.163 16 16 16h336zM464 96c0-8.836-7.164-16-16-16h-336c-8.837 0-16 7.163-16 16s7.163 16 16 16h336c8.836 0 16-7.164 16-16zM112 48h232c8.837 0 16-7.163 16-16s-7.163-16-16-16h-232c-8.837 0-16 7.163-16 16s7.163 16 16 16zM344 336h-232c-8.837 0-16 7.163-16 16s7.163 16 16 16h232c8.837 0 16-7.163 16-16s-7.163-16-16-16zM96 208v64c0 17.673 14.327 32 32 32h64c17.673 0 32-14.327 32-32v-64c0-17.673-14.327-32-32-32h-64c-17.673 0-32 14.327-32 32zM128 272v-64h64v64h-64zM438.062 409.945c-2.952-2.97-5.504-6.313-7.589-9.945h-318.474c-8.837 0-16 7.163-16 16s7.163 16 16 16h348.117l-22.055-22.055zM734.217 706.098l-30.217-30.218v20.12h-160v-160h20.118l-30.217-30.217c-13.046 4.304-21.87 16.479-21.901 30.217v160c0 17.673 14.327 32 32 32h160c13.738-0.031 25.913-8.856 30.217-21.902zM591.18 242.461c6.222 2.109 11.946 5.47 16.82 9.874v-44.335h64v64h-44.121l32 32h12.121c17.673 0 32-14.327 32-32v-64c0-17.673-14.327-32-32-32h-64c-17.673 0-32 14.327-32 32v29.401l15.18 5.060zM391.38 272h-23.38v-64h28.371c0.765-0.851 1.469-1.744 2.301-2.547 12.864-12.405 31.553-16.64 48.508-10.992l15.582 5.194c-3.732-13.929-16.341-23.625-30.762-23.655h-64c-17.673 0-32 14.327-32 32v64c0 17.673 14.327 32 32 32h32.791l-9.411-32zM832 803.879l-32-32v44.121h-768v-816c0-17.673 14.327-32 32-32h704c17.673 0 32 14.327 32 32v444.121l32 32v-476.121c-0.040-35.33-28.67-63.96-64-64h-704c-35.33 0.040-63.96 28.67-64 64v896c0.040 35.33 28.67 63.96 64 64h704c35.33-0.040 63.96-28.67 64-64v-92.121zM32 848h768v48c0 17.673-14.327 32-32 32h-704c-17.673 0-32-14.327-32-32v-48zM923.312 827.312l96-96c3.001-3 4.687-7.069 4.687-11.312s-1.686-8.313-4.687-11.312l-432-432c-1.756-1.757-3.897-3.081-6.254-3.867l-144-48c-5.652-1.883-11.882-0.47-16.169 3.667s-5.921 10.313-4.241 16.029l40 136c0.756 2.568 2.145 4.905 4.039 6.797l440 440c3 3.001 7.069 4.687 11.312 4.687s8.313-1.686 11.312-4.687zM455.988 264.859l102.394 34.134-70.38 70.38-1.803-1.803-30.211-102.711zM583.998 318.627l401.375 401.375-73.373 73.373-401.374-401.376 73.371-73.371z" />
<glyph unicode="&#xe901;" glyph-name="blog" d="M240 848c-8.832 0-16 7.168-16 16s7.168 16 16 16h544c8.832 0 16-7.168 16-16s-7.168-16-16-16h-544zM240 720c-8.832 0-16 7.168-16 16s7.168 16 16 16h365.56c-8.696-9.464-15.744-20.24-20.776-32h-344.784zM240 656c-8.832 0-16 7.168-16 16s7.168 16 16 16h336.56c-0.328-3.4-0.56-6.816-0.56-10.288v-21.712h-336zM240 592c-8.832 0-16 7.168-16 16s7.168 16 16 16h336v-32h-336zM240 528c-8.832 0-16 7.168-16 16s7.168 16 16 16h336v-32h-336zM240 464c-8.832 0-16 7.168-16 16s7.168 16 16 16h336v-32h-336zM240 400c-8.832 0-16 7.168-16 16s7.168 16 16 16h336v-9.256l14.368-22.744h-350.368zM240 336c-8.832 0-16 7.168-16 16s7.168 16 16 16h370.576l20.208-32h-390.784zM240 272c-8.832 0-16 7.168-16 16s7.168 16 16 16h410.856c12.512-20.112 20.758-32 21.144-32 0.257 0-143.743 0-432 0zM63.448 192c-35.048 0-63.448 28.656-63.448 64v640c0 35.352 28.4 64 63.448 64h897.104c35.040 0 63.448-28.648 63.448-64v-640c0-21.76-10.792-40.952-27.248-52.528-2.88-5.048-7.68-11.216-14.624-18.752l-189.2-237.888c-9.152-7.336-17.712-10.832-25.032-10.832-14.312 0-23.896 13.344-23.896 37.392v218.608h-680.552zM776-23.040l171.032 215.040h-171.032v-215.040zM32 896v-640c0-17.648 14.112-32 31.448-32h897.104c17.336 0 31.448 14.352 31.448 32v640c0 17.648-14.112 32-31.44 32h-897.112c-17.336 0-31.448-14.352-31.448-32zM240 784c-8.832 0-16 7.168-16 16s7.168 16 16 16h544c8.832 0 16-7.168 16-16s-7.168-16-16-16h-29.672c-13.864 5.104-28.896 8-44.672 8h-11.312c-15.776 0-30.816-2.896-44.672-8h-413.672zM709.656 760c49.88 0 90.344-36.84 90.344-82.288v-245.712l-67.592-107.016c-6.704-13.352-17-20.984-28.408-20.984s-21.704 7.632-28.408 20.984l-67.592 107.016v245.712c0 45.448 40.456 82.288 90.344 82.288h11.312zM704 346.776l53.84 85.224h-107.688l53.848-85.224zM768 464v213.712c0 27.728-26.176 50.288-58.344 50.288h-11.312c-32.176 0-58.344-22.56-58.344-50.288v-213.712h128z" />
<glyph unicode="&#xe902;" glyph-name="FAQ" d="M827.077 926.208c108.583 0 196.923-90.326 196.923-201.351v-342.296c0-111.025-88.34-201.351-196.923-201.351h-110.001l-200.999-205.519c-3.761-3.846-8.802-5.9-13.922-5.9-2.54 0-5.1 0.483-7.542 1.53-7.365 3.101-12.15 10.47-12.15 18.605v191.283h-285.538c-108.583 0-196.923 90.326-196.923 201.351v342.296c0 111.025 88.34 201.351 196.923 201.351h630.154zM984.615 382.561v342.296c0 88.816-70.676 161.081-157.538 161.081h-630.154c-86.863 0-157.538-72.265-157.538-161.081v-342.296c0-88.816 70.676-161.081 157.538-161.081h305.231c10.89 0 19.692-9 19.692-20.135v-162.812l173.154 177.048c3.682 3.785 8.684 5.9 13.922 5.9h118.154c86.863 0 157.538 72.265 157.538 161.081zM492.308 684.587c-10.89 0-19.692 9-19.692 20.135s8.802 20.135 19.692 20.135h211.318c10.89 0 19.692-9 19.692-20.135s-8.802-20.135-19.692-20.135h-211.318zM886.154 583.912c10.89 0 19.692-9 19.692-20.135s-8.802-20.135-19.692-20.135h-393.846c-10.89 0-19.692 9-19.692 20.135s8.802 20.135 19.692 20.135h393.846zM886.154 442.966c10.89 0 19.692-9 19.692-20.135s-8.802-20.135-19.692-20.135h-393.846c-10.89 0-19.692 9-19.692 20.135s8.802 20.135 19.692 20.135h393.846zM374.154 471.437l33.615-34.371c7.7-7.873 7.7-20.598 0-28.471-3.84-3.926-8.881-5.9-13.922-5.9s-10.082 1.973-13.922 5.9l-30.779 31.471c-24.556-23.115-57.226-37.371-93.145-37.371-75.993 0-137.846 63.244-137.846 140.946v40.27c0 77.701 61.854 140.946 137.846 140.946s137.846-63.244 137.846-140.946v-40.27c0-26.397-7.286-51.042-19.692-72.204zM256 442.966c25.068 0 47.714 9.927 65.122 25.753l-79.045 80.822c-7.7 7.873-7.7 20.598 0 28.471s20.145 7.873 27.845 0l75.067-76.755c5.927 12.927 9.472 27.202 9.472 42.384v40.27c0 55.512-44.17 100.675-98.462 100.675s-98.462-45.163-98.462-100.675v-40.27c0-55.512 44.17-100.675 98.462-100.675z" />
<glyph unicode="&#xe903;" glyph-name="insurance6" horiz-adv-x="901" d="M768.818 503.467l65.496 0.004c36.68 0 66.807-28.947 66.807-64.074v-23.018c0-22.4-19.322-41.056-42.753-41.056h-1.55c13.16-23.345 20.323-49.746 20.323-76.988v-135.448c0-54.425-41.644-99.935-95.92-108.617v-77.287c0.003-22.4-19.323-40.984-42.753-40.984h-48.033c-23.43 0-42.756 18.584-42.753 40.984v75.794h-394.24v-75.794c0.003-22.4-19.323-40.984-42.753-40.984h-48.033c-23.43 0-42.756 18.584-42.753 40.984v77.275c-54.299 8.653-95.92 54.179-95.92 108.629v135.448c0 27.24 7.141 53.64 20.28 76.984h-1.507c-23.432 0-42.753 18.656-42.753 41.056v23.018c0 35.127 30.053 64.074 66.733 64.074l67.432-0.004c26.581 67.151 93.232 115.241 172.441 115.241l12.54 0.007v-35.932h-12.54c-82.554 0-149.16-63.965-149.16-143.379v-6.272l13.713-4.399c12.314-3.952 25.156-5.894 38.133-5.894h482.46c12.977 0 25.893 1.942 38.207 5.894l13.64 4.382v6.289c0.002 79.407-66.54 143.379-149.087 143.379h-12.54v35.932h12.54c79.412 0 147.396-47.966 174.304-115.243zM778.848 467.536c1.326-8.038 2.094-16.252 2.263-24.601l0.036-0.102v5.544l28.527-20.56c7.030-5.065 13.581-10.607 19.621-16.561h29.073c3.065 0 5.207 2.064 5.207 5.12v23.018c0 15.785-12.947 28.143-29.26 28.143h-55.465zM124.189 467.532h-57.456c-16.313 0-29.187-12.362-29.187-28.143v-23.018c0-3.028 2.142-5.12 5.207-5.12h29.001c6.037 5.955 12.588 11.499 19.619 16.565l30.8 22.177c0.382 5.925 1.059 11.776 2.016 17.538zM743.673 52.778h-58.447v-75.794c0-3.042 2.136-5.052 5.207-5.052h48.033c3.070 0 5.207 1.996 5.207 5.052v75.794zM157.447 52.778v-75.794c0-3.042 2.136-5.052 5.207-5.052h48.033c3.070 0 5.207 1.996 5.207 5.052v75.794h-58.447zM61.527 232.017c0-41.239 34.337-74.181 77.147-74.181h623.7c42.81 0 77.22 32.942 77.22 74.181v66.318c-0.001 39.684-19.49 76.988-52.507 100.775l-9.672 6.961-35.575-11.38c-16.152-5.174-33.059-7.795-50.087-7.795h-482.46c-17.028 0-33.935 2.621-50.087 7.795l-35.575 11.38-9.672-6.961c-33.016-23.786-52.433-61.090-52.433-100.775v-66.318zM62.736 149.631c6.438-34.816 37.832-60.92 75.938-60.92h623.7c38.12 0 69.581 26.124 76.016 60.959-20.274-17.257-46.916-27.766-76.016-27.766h-623.7c-29.078 0-55.686 10.493-75.938 27.727zM449.654 959.984v-0.004c5.067 0.231 10.013-1.535 13.713-4.834 32.811-29.546 85.459-45.828 135.007-39.934 11.211 1.351 21.119-7.017 21.12-17.826v-151.445c0.001-47.362-22.515-92.176-61.16-121.762l-96.067-73.408c-6.859-5.255-16.608-5.255-23.467 0l-96.067 73.548c-38.645 29.586-61.161 74.401-61.16 121.762v151.445c0.026 10.656 9.681 18.913 20.753 17.826l14.667-1.48c44.473-4.405 88.649 10.59 120.267 40.844 3.302 3.191 7.721 4.862 12.393 5.269zM450.9 917.948h0.001c-36.905-29.896-83.308-42.362-131.78-39.090v-132.779c-0.001-36.474 17.321-70.908 47.080-93.689l84.333-64.637 84.332 64.497c29.759 22.78 47.081 57.215 47.080 93.689l-0.146 132.075c-48.365-1.668-94.768 12.583-130.9 39.934zM186.633 330.617c36.681 0 66.807-28.879 66.807-64.006 0-35.123-30.126-64.074-66.807-64.074s-66.733 28.951-66.733 64.074c0 35.127 30.053 64.006 66.733 64.006zM186.633 294.685c-16.312 0-29.187-12.292-29.187-28.074 0-15.784 12.874-28.141 29.187-28.141s29.26 12.364 29.26 28.141c0 15.784-12.948 28.074-29.26 28.074zM714.413 330.617c36.681 0 66.733-28.879 66.733-64.006 0-35.123-30.053-64.074-66.733-64.074s-66.733 28.951-66.733 64.074c0 35.127 30.053 64.006 66.733 64.006zM714.413 294.685c-16.312 0-29.187-12.292-29.187-28.074 0-15.784 12.874-28.141 29.187-28.141s29.187 12.364 29.187 28.141c0 15.784-12.874 28.074-29.187 28.074zM330.587 330.617h239.873c5.788 0.013 11.258-2.53 14.826-6.89s4.835-10.053 3.434-15.427l-23.98-92.147c-2.091-8.016-9.626-13.634-18.26-13.615h-191.913c-8.607 0.013-16.102 5.624-18.187 13.615l-23.98 92.147c-1.398 5.362-0.14 11.041 3.412 15.399s9 6.909 14.775 6.918zM354.64 294.685l14.593-56.215h162.58l14.667 56.215h-191.84zM534.281 816.256v0.039c8.049 0.265 15.378-4.411 18.216-11.623s0.555-15.354-5.676-20.236l-112.347-89.689c-7.457-5.955-18.43-5.484-25.3 1.086l-46.86 44.914c-4.911 4.515-6.882 11.221-5.151 17.524s6.893 11.215 13.489 12.836c6.596 1.621 13.592-0.303 18.282-5.028l34.687-33.261 99.147 79.161c3.224 2.628 7.281 4.135 11.513 4.278z" />
<glyph unicode="&#xe904;" glyph-name="insurance5" horiz-adv-x="772" d="M658.737 421.634l56.118 0.003c31.428 0 57.241-24.772 57.241-54.834v-19.698c0-19.17-16.555-35.135-36.632-35.135h-1.328c11.276-19.979 17.413-42.572 17.413-65.886v-115.915c0-46.577-35.681-85.524-82.186-92.954v-66.141c0.002-19.17-16.556-35.074-36.632-35.074h-41.156c-20.075 0-36.634 15.904-36.632 35.074v64.864h-337.792v-64.864c0.003-19.17-16.556-35.074-36.632-35.074h-41.156c-20.075 0-36.634 15.904-36.632 35.074v66.131c-46.525 7.406-82.186 46.366-82.186 92.963v115.915c0 23.312 6.119 45.905 17.377 65.882h-1.291c-20.077 0-36.632 15.966-36.632 35.135v19.698c0 30.061 25.75 54.834 57.178 54.834l57.777-0.003c22.775 57.467 79.883 98.622 147.751 98.622l10.745 0.006v-30.751h-10.745c-70.734 0-127.803-54.741-127.803-122.702v-5.367l11.75-3.765c10.551-3.382 21.554-5.044 32.673-5.044h413.38c11.119 0 22.186 1.662 32.736 5.044l11.687 3.75v5.382c0.002 67.956-57.013 122.702-127.74 122.702h-10.745v30.751h10.745c68.042 0 126.291-41.049 149.347-98.624zM667.331 390.884c1.136-6.879 1.794-13.908 1.939-21.054l0.031-0.088v4.745l24.442-17.595c6.023-4.334 11.637-9.077 16.811-14.172h24.91c2.626 0 4.461 1.766 4.461 4.381v19.698c0 13.509-11.093 24.084-25.071 24.084h-47.524zM106.407 390.881h-49.229c-13.977 0-25.008-10.579-25.008-24.084v-19.698c0-2.592 1.835-4.381 4.461-4.381h24.848c5.173 5.097 10.786 9.841 16.81 14.176l26.39 18.979c0.328 5.070 0.907 10.078 1.727 15.009zM637.193 35.938h-50.078v-64.864c0-2.603 1.831-4.323 4.461-4.323h41.156c2.631 0 4.461 1.708 4.461 4.323v64.864zM134.903 35.938v-64.864c0-2.603 1.83-4.323 4.461-4.323h41.156c2.631 0 4.461 1.708 4.461 4.323v64.864h-50.078zM52.717 189.329c0-35.292 29.421-63.484 66.101-63.484h534.397c36.68 0 66.163 28.191 66.163 63.484v56.755c-0.001 33.962-16.7 65.886-44.989 86.242l-8.287 5.957-30.481-9.739c-13.839-4.428-28.325-6.671-42.915-6.671h-413.38c-14.59 0-29.076 2.243-42.915 6.671l-30.481 9.739-8.287-5.957c-28.289-20.356-44.925-52.281-44.926-86.242v-56.755zM53.753 118.824c5.516-29.795 32.415-52.135 65.065-52.135h534.397c32.662 0 59.618 22.357 65.132 52.168-17.371-14.768-40.198-23.762-65.132-23.762h-534.397c-24.915 0-47.713 8.98-65.065 23.729zM159.911 273.711c31.429 0 57.241-24.714 57.241-54.776 0-30.058-25.812-54.834-57.241-54.834s-57.178 24.776-57.178 54.834c0 30.061 25.75 54.776 57.178 54.776zM159.911 242.96c-13.977 0-25.008-10.52-25.008-24.025 0-13.508 11.031-24.083 25.008-24.083s25.070 10.581 25.071 24.083c0 13.508-11.094 24.025-25.071 24.025zM612.122 273.711c31.429 0 57.178-24.714 57.178-54.776 0-30.058-25.75-54.834-57.178-54.834s-57.178 24.776-57.178 54.834c0 30.061 25.75 54.776 57.178 54.776zM612.122 242.96c-13.977 0-25.008-10.52-25.008-24.025 0-13.508 11.031-24.083 25.008-24.083s25.008 10.581 25.008 24.083c0 13.508-11.031 24.025-25.008 24.025zM283.253 273.711h205.528c4.959 0.011 9.646-2.165 12.703-5.897s4.143-8.603 2.942-13.202l-20.547-78.859c-1.792-6.86-8.248-11.668-15.645-11.652h-164.435c-7.374 0.011-13.796 4.813-15.583 11.652l-20.547 78.859c-1.198 4.589-0.12 9.449 2.923 13.178s7.712 5.913 12.66 5.92zM303.862 242.96l12.504-48.108h139.301l12.567 48.108h-164.372zM671.762 709.578c-43.635 8.782-84.974-1.255-128.609-31.364-16.076-11.291-35.597-26.346-37.894-30.11l-5.741-7.527-9.186 2.509c-1.148 0-3.445 1.255-4.593 1.255-40.19 11.291-80.381 8.782-127.461-5.018l19.521-62.728c2.297-8.782-1.148-17.564-9.186-20.073-1.148 0-3.445-1.255-4.593-1.255-5.741 0-11.483 3.764-13.78 10.037l-19.521 62.728c-25.262-10.037-47.080-23.837-64.304-38.892-9.186-7.527-17.224-17.564-25.262-26.346l-8.038-8.782-8.038 1.255c-55.118 10.037-109.088 1.255-145.833-23.837-5.741-3.764-11.483-8.782-17.224-13.8-2.297-1.255-4.593-3.764-5.741-5.018-2.297-1.255-3.445-2.509-4.593-3.764 0 0-1.148-1.255-2.297-2.509-2.297-2.509-4.593-5.018-5.741-5.018l-6.89-5.018-8.038 3.764c-2.297 1.255-8.038 5.018-8.038 15.055v2.509c0 3.764 0 6.273-1.148 10.037-3.445 104.129 32.152 195.712 104.495 272.241 36.745 38.892 79.232 69.001 127.461 89.074l-16.076 50.183c-2.297 8.782 1.148 17.564 9.186 20.073s16.076-1.255 18.373-10.037l16.076-50.183c11.483 3.764 24.114 7.527 36.745 10.037 68.898 16.309 137.795 11.291 200.951-11.291 70.046-27.6 126.312-75.274 166.503-140.511 3.445-5.018 5.741-10.037 9.186-16.309 3.445-7.527 3.445-16.309-1.148-22.582-4.593-7.527-12.631-10.037-19.521-8.782zM505.259 867.654c-58.563 21.328-122.867 25.091-186.024 11.291-68.898-16.309-128.609-50.183-176.837-101.62-63.156-66.492-94.16-141.766-95.308-229.586 5.741 5.018 11.483 8.782 16.076 12.546 31.004 21.328 73.491 32.619 117.126 32.619 13.78 0 27.559-1.255 41.339-3.764 8.038 8.782 16.076 18.818 25.262 26.346 22.966 20.073 51.673 36.382 86.122 48.928 0 0 1.148 0 1.148 1.255 0 0 1.148 0 1.148 0 3.445 1.255 6.89 2.509 10.335 3.764 52.822 16.309 99.902 18.818 144.685 7.527 10.335 10.037 28.707 22.582 37.894 28.855 43.635 28.855 86.122 41.401 129.757 37.637-36.745 57.71-87.27 99.111-152.723 124.202z" />
<glyph unicode="&#xe905;" glyph-name="insurance4" d="M507.874 549.26h-123.992c-10.1 0-18.288 8.198-18.288 18.311s8.188 18.311 18.288 18.311h173.186l48.581 112.138c6.249 14.424 26.55 14.775 33.293 0.576l48.706-102.562 15.281 66.021c1.924 8.313 9.327 14.193 17.849 14.177l125.953-0.23c10.1-0.018 18.273-8.232 18.255-18.345s-8.221-18.296-18.321-18.278l-111.391 0.203-23.823-102.928c-3.909-16.89-26.896-19.387-34.332-3.729l-53.928 113.557-37.344-86.2c-2.9-6.693-9.491-11.024-16.777-11.024h-49.933c3.223-1.040 6.195-2.988 8.505-5.802 14.48-17.65 31.102-35.673 49.452-53.852 24.629-24.4 51.075-47.841 77.524-69.445 8.7-7.106 16.809-13.527 24.141-19.174 5.605 4.42 11.745 9.37 18.227 14.725l19.611 16.553c41.641 35.938 79.811 73.768 109.668 110.989 37.732 47.039 58.497 88.852 58.497 121.679 0 51.137-25.587 96.26-65.405 119.83-40.263 23.834-88.206 21.844-130.060-9.029-6.836-5.043-16.239-4.711-22.704 0.801-35.95 30.653-84.044 32.789-127.060 8.573-43.248-24.347-71.678-70.090-71.678-120.175 0-14.234 4.043-30.357 12.010-48.113 4.139-9.225 0.026-20.063-9.187-24.207s-20.037-0.026-24.176 9.199c-9.941 22.155-15.222 43.217-15.222 63.121 0 131.114 147.152 218.713 247.859 148.137 51.195 32.019 109.779 32.256 158.833 3.218 50.974-30.175 83.366-87.297 83.366-151.355 0-43.179-24.068-91.643-66.556-144.612-31.478-39.242-71.164-78.568-114.382-115.862l-0.152-0.13-19.834-16.739c-8.059-6.661-15.491-12.624-22.127-17.809-2.334-1.824-4.405-3.423-6.193-4.787-1.091-0.832-1.855-1.409-2.273-1.721-6.427-4.799-15.227-4.847-21.705-0.118-0.503 0.367-1.425 1.048-2.741 2.031-2.16 1.614-4.657 3.504-7.462 5.656-7.981 6.123-16.86 13.138-26.415 20.942-27.296 22.296-54.595 46.493-80.129 71.79-19.195 19.017-36.656 37.95-51.989 56.639-6.411 7.814-5.282 19.353 2.523 25.773 1.825 1.501 3.854 2.59 5.973 3.276zM755.791 294.021c3.25 2.932 6.699 6.013 10.327 9.221 18.664 16.498 38.29 32.998 57.993 48.431 12.483 9.778 24.616 18.822 36.285 26.986 27.893 19.517 52.282 33.459 72.701 40.668 12.71 4.488 24.091 6.46 34.365 5.383 12.32-1.292 22.673-7.045 29.486-17.033 8.027-8.914 16.685-28.96 26.474-67.011 1.941-7.547-1.101-15.498-7.582-19.814-0.088-0.058-0.287-0.191-0.579-0.387-0.493-0.33-1.077-0.722-1.749-1.174-1.928-1.297-4.169-2.812-6.696-4.531-7.233-4.92-15.298-10.476-23.987-16.551-24.813-17.348-49.622-35.352-72.736-53.047-9.674-7.405-18.859-14.614-27.482-21.581-23.191-18.739-41.776-35.302-54.624-48.941-54.915-58.287-121.587-92.891-195.224-108.030-52.19-10.73-102.481-10.801-146.719-4.515-10 1.421-16.956 10.69-15.537 20.703s10.676 16.978 20.676 15.557c40.367-5.736 86.553-5.671 134.223 4.13 66.609 13.694 126.51 44.783 175.974 97.285 14.183 15.056 33.894 32.622 58.261 52.312 8.883 7.178 18.319 14.582 28.237 22.175 23.578 18.050 48.798 36.352 74.012 53.98 8.182 5.72 15.823 10.991 22.759 15.718-4.381 15.437-8.442 26.583-12.044 34.009-1.248 2.574-2.238 4.277-2.913 5.231-1.066 1.064-1.999 2.258-2.776 3.556-0.595 0.995-1.131 1.312-3.264 1.536-4.073 0.427-10.364-0.663-18.391-3.498-16.659-5.882-38.5-18.368-63.914-36.15-11.096-7.764-22.709-16.42-34.699-25.812-19.078-14.944-38.166-30.992-56.323-47.041-6.356-5.618-12.137-10.831-17.229-15.504-1.776-1.629-3.336-3.072-4.667-4.312-0.788-0.734-1.318-1.231-1.575-1.474-1.158-1.094-2.421-2.007-3.754-2.74-2.282-4.914-5.647-9.69-10.072-14.198-12.797-13.036-34.473-24.294-62.764-34.064-48.95-16.904-113.161-27.251-138.549-22.029-15.97 3.293-28.645 8.51-51.91 19.982-16.316 8.045-21.096 10.289-28.499 13.109-11.24 4.282-20.329 5.985-28.682 5.222-10.058-0.919-18.956 6.5-19.874 16.572s6.492 18.98 16.551 19.899c14.609 1.335 28.987-1.36 45.011-7.464 8.909-3.394 14.173-5.864 31.652-14.483 20.561-10.138 31.15-14.496 43.121-16.965 17.476-3.595 75.971 5.832 119.254 20.779 23.383 8.075 40.713 17.076 48.604 25.115 4.442 4.525 4.446 4.386-1.498 9.403-12.002 10.131-25.227 16.763-41.359 21.233-13.135 3.639-25.267 5.472-51.067 8.268-30.95 3.354-43.14 5.020-60.885 9.034-24.396 5.519-46.789 13.802-68.822 26.186-94.365 53.067-187.478 84.347-235.656 76.962-18.149-2.769-57.352-20.937-108.962-49.735-7.605-4.243-15.422-8.684-23.423-13.301-12.572-7.255-25.314-14.777-38.039-22.431l64.536-149.355c25.801 4.903 53.64 3.846 83.636-2.423 31.068-6.494 60.487-17.049 105.091-36.065 4.885-2.083 23.451-10.070 27.835-11.939 10.416-4.441 18.497-7.789 26.056-10.762 18.252-7.177 32.571-11.755 44.788-14.116 9.917-1.917 16.404-11.52 14.49-21.45s-11.506-16.425-21.423-14.509c-14.807 2.862-31.070 8.061-51.226 15.987-7.935 3.12-16.309 6.59-27.016 11.155-4.457 1.901-23.023 9.888-27.834 11.939-42.539 18.136-70.134 28.037-98.235 33.911-29.912 6.252-56.352 6.47-80.164-0.317-0.949-0.37-1.912-0.655-2.88-0.859-18.549-5.781-35.495-15.914-51.249-30.868-9.341-8.867-24.665-5.554-29.52 6.382l-72.766 178.913c-3.316 8.153-0.369 17.514 7.017 22.289 0.113 0.073 0.113 0.073 0.612 0.395 0.493 0.317 1.074 0.691 1.74 1.118 1.898 1.218 4.107 2.628 6.604 4.215 7.123 4.528 15.139 9.57 23.872 14.999 7.567 4.703 15.205 9.407 22.875 14.082 0.331 0.217 0.672 0.425 1.020 0.622 17.295 10.532 34.746 20.914 51.914 30.82 8.149 4.702 16.119 9.229 23.882 13.561 55.823 31.148 97.053 50.256 121.245 53.947 58.622 8.985 158.060-24.42 259.085-81.232 18.798-10.566 37.885-17.626 58.975-22.397 15.916-3.6 27.216-5.145 56.76-8.347 27.733-3.006 41.232-5.045 56.886-9.382 20.986-5.814 38.933-14.815 55.178-28.528 2.533-2.138 4.789-4.347 6.772-6.613zM126.657 168.523l-60.96 141.080c-1.739-1.076-3.475-2.153-5.207-3.229-7.005-4.354-13.54-8.455-19.51-12.234l57.639-141.721c9.027 6.433 18.37 11.784 28.038 16.104z" />
<glyph unicode="&#xe906;" glyph-name="plus" d="M974.452 497.548h-412.903v412.903c0 27.365-22.184 49.548-49.548 49.548s-49.548-22.184-49.548-49.548v-412.903h-412.903c-27.365 0-49.548-22.184-49.548-49.548s22.184-49.548 49.548-49.548h412.903v-412.903c0-27.365 22.184-49.548 49.548-49.548s49.548 22.184 49.548 49.548v412.903h412.903c27.365 0 49.548 22.184 49.548 49.548s-22.184 49.548-49.548 49.548z" />
<glyph unicode="&#xe907;" glyph-name="profileactive" horiz-adv-x="1219" d="M668.406 472.836c84.643-53.729 136.165-144.796 136.165-245.879 0-12.749-10.12-22.767-23.001-22.767s-23.001 10.017-23.001 22.767c0 84.692-43.242 161.187-115.005 206.721-11.040 7.285-13.801 20.945-7.36 31.873 7.36 10.928 21.161 13.66 32.201 7.285zM647.245 606.704c0-71.032-56.122-129.314-126.045-133.868-1.84-0.911-3.68-0.911-5.52-0.911h-3.68c-136.165 0-246.57-109.28-246.57-244.058 0-12.749-10.12-22.767-23.001-22.767s-23.001 10.017-23.001 22.767c0 130.225 86.483 239.505 205.168 276.842-29.441 24.588-47.842 61.014-47.842 101.994 0 73.764 60.722 133.868 135.245 133.868s135.245-60.104 135.245-133.868zM511.080 518.369c49.682 0 89.243 40.069 89.243 88.334s-40.482 88.334-89.243 88.334c-48.762 0-89.243-40.069-89.243-88.334s39.562-88.334 89.243-88.334zM1014.681 350.257c3.088 0.145 6.195 0.219 9.319 0.219 107.722 0 195.048-87.326 195.048-195.048s-87.326-195.048-195.048-195.048c-74.926 0-139.985 42.248-172.654 104.221-90.341-80.021-209.17-128.602-339.346-128.602-282.77 0-512 229.23-512 512s229.23 512 512 512c282.77 0 512-229.23 512-512 0-33.426-3.203-66.103-9.319-97.743zM962.739 340.662c8.173 34.45 12.499 70.389 12.499 107.338 0 255.839-207.399 463.238-463.238 463.238s-463.238-207.399-463.238-463.238c0-255.839 207.399-463.238 463.238-463.238 124.764 0 238.009 49.323 321.297 129.535-2.846 13.26-4.345 27.021-4.345 41.132 0 86.322 56.076 159.546 133.787 185.233zM951.038 145.637c-4.21 3.947-10.823 3.734-14.769-0.476s-3.734-10.823 0.476-14.769l55.728-52.245c4.487-4.206 11.618-3.647 15.394 1.208l97.524 125.388c3.543 4.555 2.722 11.12-1.833 14.663s-11.12 2.722-14.663-1.833l-90.489-116.343-47.368 44.408z" />
<glyph unicode="&#xe908;" glyph-name="insurance3" d="M1017.393 514.065c9.299 0 16.847-7.399 16.847-16.516v-246.189c0-78.617-38.612-153.286-103.27-199.779l-156.32-112.392c-2.948-2.131-6.452-3.188-9.956-3.188s-7.008 1.057-9.973 3.188l-156.32 112.392c-50.405 36.236-84.654 89.683-97.458 148.678h-426.96c-9.299 0-16.847 7.399-16.847 16.516v478.968h-50.54c-5.29 0-10.26 2.428-13.444 6.573s-4.195 9.497-2.746 14.485l67.386 231.226c2.055 7.085 8.676 11.974 16.19 11.974h707.557c7.514 0 14.134-4.889 16.19-11.974l67.386-231.226c1.466-4.988 0.438-10.339-2.746-14.485s-8.154-6.573-13.444-6.573h-50.54v-118.289c63.613-41.34 137.148-63.389 213.8-63.389h5.206zM86.686 926.968l-57.75-198.194h129.281v99.097h33.693v-99.097h67.386v99.097h33.693v-99.097h67.386v99.097h33.693v-99.097h67.386v99.097h33.693v-99.097h67.386v99.097h33.693v-99.097h67.386v99.097h33.693v-99.097h129.281l-57.767 198.194h-682.136zM764.694 695.742h-673.864v-363.355h185.313v280.774c0 9.117 7.547 16.516 16.847 16.516h269.529c9.299 0 16.847-7.399 16.847-16.516v-94.158c58.525 9.249 114.035 31.496 163.041 65.817l12.483 8.737c2.931 2.065 6.368 3.089 9.805 3.089v99.097zM90.83 299.355v-66.065h185.313v66.065h-185.313zM511.995 514.065h5.206c9.552 0 19.037 0.396 28.488 1.074v81.507h-235.852v-363.355h186.408c-0.438 6.012-1.095 11.991-1.095 18.069v246.189c0 9.117 7.547 16.516 16.847 16.516zM1000.547 251.359v229.822c-84.081 2.23-164.457 28.655-233.157 76.75l-2.695 1.899-2.695-1.899c-68.7-48.095-149.076-74.521-233.157-76.75v-229.822c0-68.129 33.457-132.856 89.489-173.139l146.363-105.224 146.363 105.224c56.032 40.283 89.489 105.010 89.489 173.139zM749.617 471.899c5.711 11.198 24.444 11.198 30.139 0.017l58.205-114.126 14.657 17.953c3.689 4.525 9.569 6.821 15.415 6.045 5.879-0.776 10.9-4.525 13.225-9.86l50.54-115.613c0.91-2.048 1.365-4.278 1.365-6.507 0-81.953-68.027-148.645-151.619-148.645h-33.693c-83.593 0-151.619 66.692-151.619 148.645 0 2.23 0.455 4.459 1.348 6.491l50.54 115.613c2.342 5.335 7.345 9.084 13.225 9.86 5.896 0.793 11.725-1.519 15.415-6.045l14.657-17.953 58.205 114.126zM814.779 329.365l-50.085 98.221-50.068-98.221 29.549-36.22-26.314-20.629-49.832 61.060-38.056-87.057c1.769-62.233 53.977-112.326 117.876-112.326h33.693c63.899 0 116.107 50.093 117.893 112.326l-38.056 87.057-49.832-61.060-26.314 20.629 29.549 36.22zM714.155 216.774c0 27.318 22.676 49.548 50.54 49.548s50.54-22.231 50.54-49.548c0-27.318-22.676-49.548-50.54-49.548s-50.54 22.231-50.54 49.548zM781.541 216.774c0 9.1-7.564 16.516-16.847 16.516s-16.847-7.416-16.847-16.516c0-9.1 7.564-16.516 16.847-16.516s16.847 7.416 16.847 16.516zM343.529 431.484h33.693v-33.032h-33.693v33.032z" />
<glyph unicode="&#xe909;" glyph-name="insurance2" horiz-adv-x="983" d="M961.752 19.612c-16.307-26.502-40.517-47.134-69.169-58.949l-55.66-23.348c-4.176-1.754-8.875-1.754-13.051 0l-55.66 23.348c-28.577 11.851-52.711 32.481-68.965 58.949-13.892 22.639-21.262 48.721-21.288 75.333v11.708h-474.571c0-28.277-22.765-51.201-50.847-51.201s-50.847 22.923-50.847 51.201h-47.186c-30.092 0.028-54.48 24.586-54.508 54.887v572.903c0.028 30.302 24.416 54.859 54.508 54.887h250.574v66.203c0.009 57.691 46.452 104.457 103.745 104.467h114.541c57.293-0.009 103.735-46.775 103.745-104.467v-66.203h267.522c30.092-0.028 54.48-24.586 54.508-54.887v-434.814c4.576 0.495 9.152 1.143 13.712 2.031 4.97 0.974 10.113-0.341 14.020-3.585s6.169-8.076 6.167-13.175v-189.955c-0.026-26.612-7.396-52.694-21.288-75.333zM915.244 734.443c-0.004 5.515-2.187 10.801-6.065 14.694s-9.136 6.073-14.612 6.059h-81.084v-45.825c41.393-19.703 67.794-61.674 67.794-107.778s-26.4-88.075-67.794-107.778v-172.53l8.474 4.915c0.409 0.198 0.827 0.375 1.254 0.529 0.508 0.239 0.983 0.444 1.508 0.631 1.807 0.71 3.722 1.103 5.661 1.161h0.237c1.951-0.059 3.878-0.458 5.695-1.178 0.525-0.188 1-0.393 1.508-0.631 0.427-0.154 0.845-0.331 1.254-0.529l8.474-4.984c20.729-12.118 43.828-19.549 67.694-21.777v435.019zM847.448 601.595c-0.056 47.106-37.965 85.278-84.745 85.335-46.803 0-84.745-38.206-84.745-85.335s37.942-85.335 84.745-85.335c46.803 0 84.745 38.206 84.745 85.335zM338.979 855.533v-66.203h33.898v56.201c0 25.516 20.542 46.2 45.881 46.2h94.677c12.168 0 23.838-4.868 32.443-13.532s13.438-20.415 13.438-32.668v-56.201h33.898v66.203c0.051 18.664-7.316 36.572-20.457 49.733-13.132 13.139-30.877 20.54-49.389 20.6h-114.541c-18.513-0.059-36.257-7.46-49.389-20.6-13.142-13.161-20.508-31.069-20.457-49.733zM525.418 789.331v56.201c0 3.2-1.262 6.269-3.51 8.532s-5.295 3.534-8.473 3.534h-94.677c-3.178 0-6.226-1.271-8.473-3.534s-3.51-5.332-3.51-8.532v-56.201h118.643zM54.508 755.197c-11.379-0.009-20.601-9.296-20.61-20.753v-228.185l101.694 102.402v146.537h-81.084zM33.898 384.981l229.862 217.006-43.423 43.743-186.439-187.736v-73.012zM54.508 140.787h81.084v293.415l-101.694-96.001v-176.66c0.009-11.458 9.231-20.744 20.61-20.753zM152.541 89.587c9.361 0 16.949 7.641 16.949 17.067h-33.898c0-9.426 7.588-17.067 16.949-17.067zM698.145 301.66c27.133-5.289 55.147-3.682 81.508 4.676v177.155c-46.16-7.088-92.156 13.746-117.512 53.228s-25.356 90.268 0 129.75c25.356 39.482 71.352 60.316 117.512 53.228v35.499h-610.163v-112.403l38.949 39.134c6.619 6.663 17.347 6.663 23.966 0l67.796-68.268c3.242-3.267 5.031-7.719 4.958-12.337s-2.003-9.010-5.348-12.171l-130.507-123.138c0.017-0.341 0.186-0.614 0.186-0.956v-324.272h508.469v144.113c-0.002 5.099 2.26 9.931 6.167 13.175s9.049 4.559 14.020 3.585zM728.094 37.584c12.538-20.379 31.137-36.258 53.152-45.381l32.305-13.551v304.286c-31.786-14.724-66.845-20.82-101.694-17.681v-170.311c0.033-20.266 5.654-40.124 16.237-57.362zM879.753-7.797c22.015 9.123 40.614 25.002 53.152 45.381 10.583 17.238 16.204 37.096 16.237 57.362v170.311c-34.85-3.159-69.914 2.937-101.694 17.681v-304.286l32.305 13.551zM350.962 365.934l71.914-72.415c6.617-6.665 6.617-17.468 0-24.133l-71.914-72.398c-6.619-6.663-17.347-6.663-23.966 0l-71.914 72.398c-6.617 6.665-6.617 17.468 0 24.133l71.914 72.415c6.724 6.402 17.242 6.402 23.966 0zM338.979 233.188l47.949 48.265-47.949 48.282-47.949-48.282 47.949-48.265zM486.554 579.527l118.643-119.468c3.179-3.2 4.965-7.54 4.966-12.066v-102.402c0-9.426-7.588-17.067-16.949-17.067h-101.694c-4.495 0.001-8.805 1.8-11.983 5.001l-118.643 119.468c-6.617 6.665-6.617 17.468 0 24.133l101.694 102.402c6.619 6.663 17.347 6.663 23.966 0zM576.265 362.658v78.269l-101.694 102.402-77.728-78.269 101.694-102.402h77.728z" />
<glyph unicode="&#xe90a;" glyph-name="insurance1" horiz-adv-x="881" d="M30.144 637.408c-8.981-1.616-19.459 1.616-25.446 11.313-5.987 8.081-5.987 19.394-1.497 29.090 4.49 8.081 7.484 14.545 11.975 21.010 52.389 84.039 125.734 145.451 217.040 181.006 82.326 29.090 172.135 35.555 261.945 14.545 16.465-3.232 32.93-8.081 47.899-12.929l20.956 64.645c2.994 11.313 13.471 16.161 23.949 12.929s14.968-14.545 11.975-25.858l-20.956-64.645c62.867-25.858 118.249-64.645 166.148-114.745 94.3-98.584 140.702-216.561 136.211-350.699-1.497-4.848-1.497-8.081-1.497-12.929v-3.232c0-12.929-7.484-17.777-10.478-19.394l-10.478-4.848-8.981 6.465c-1.497 0-4.49 3.232-7.484 6.465-1.497 1.616-2.994 3.232-2.994 3.232-1.497 1.616-2.994 3.232-5.987 4.848-1.497 1.616-4.49 4.848-7.484 6.465-7.484 6.465-14.968 12.929-22.452 17.777-47.899 32.323-118.249 43.635-190.097 30.706l-10.478-1.616-10.478 11.313c-10.478 11.313-20.956 24.242-32.93 33.939-22.452 19.394-50.892 37.171-83.822 50.1l-25.446-80.806c-2.994-8.081-10.478-12.929-17.962-12.929-1.497 0-4.49 1.616-5.987 1.616-10.478 3.232-14.968 14.545-11.975 25.858l25.446 80.806c-61.37 17.777-113.759 21.010-166.148 6.465-1.497 0-4.49-1.616-5.987-1.616l-11.975-3.232-7.484 9.697c-2.994 4.848-28.44 24.242-49.395 38.787-56.879 38.787-110.765 51.716-167.645 40.403zM247.184 841.040c-85.319-32.323-151.18-85.655-199.078-159.996 56.879 4.848 112.262-11.313 169.142-48.484 11.975-8.081 35.924-24.242 49.395-37.171 58.376 14.545 119.746 11.313 188.6-9.697 4.49-1.616 8.981-3.232 13.471-4.848 0 0 1.497 0 1.497 0 0-1.616 1.497-1.616 1.497-1.616 44.905-16.161 82.326-37.171 112.262-63.029 11.975-9.697 22.452-22.626 32.93-33.939 17.962 3.232 35.924 4.848 53.886 4.848 56.879 0 112.262-14.545 152.677-42.019 5.987-4.848 13.471-9.697 20.956-16.161-1.497 113.129-41.911 210.096-124.237 295.751-62.867 66.261-140.702 109.897-230.512 130.906-82.326 17.777-166.148 12.929-242.486-14.545zM208.383 53.671c-55.565 46.746-84.098 103.164-87.102 169.253-1.502 22.567 1.502 38.686 3.004 45.134 0 6.448 1.502 11.284 3.004 17.731 10.512 49.97 34.54 87.044 69.081 107.999 36.042 22.567 79.593 25.791 124.646 11.284 15.018-4.836 28.533-12.895 42.049-20.955 4.505-1.612 7.509-4.836 12.014-6.448 3.004-1.612 4.505-1.612 4.505-1.612 1.502 0 3.004 0 6.007 1.612s6.007 4.836 10.512 6.448c13.516 8.060 27.032 16.119 42.049 20.955 45.053 14.507 88.604 11.284 124.646-11.284 34.54-22.567 58.568-59.641 69.081-107.999 1.502-6.448 1.502-11.284 3.004-17.731s6.007-24.179 3.004-45.134c-1.502-66.089-30.035-122.507-84.098-169.253-25.53-22.567-52.561-40.298-79.593-58.030-12.014-8.060-22.526-14.507-33.039-22.567-4.505-3.224-9.011-6.448-13.516-9.672-9.011-6.448-18.021-12.895-27.032-19.343-3.004-3.224-6.007-4.836-10.512-6.448-3.004-1.612-6.007-1.612-9.011-1.612-6.007 0-12.014 3.224-19.523 8.060-9.011 6.448-18.021 12.895-27.032 19.343-4.505 3.224-9.011 6.448-13.516 9.672-10.512 8.060-22.526 14.507-33.039 22.567-27.032 17.731-54.063 37.074-79.593 58.030zM160.327 226.148l-1.502-3.224c0-53.194 24.028-99.94 70.583-138.626 24.028-19.343 51.060-37.074 76.59-54.806 10.512-8.060 22.526-14.507 33.039-22.567 4.505-3.224 9.011-6.448 13.516-9.672 9.011-6.448 18.021-12.895 27.032-19.343 7.509 6.448 16.519 12.895 25.53 19.343 4.505 3.224 9.011 6.448 13.516 9.672 10.512 8.060 22.526 14.507 33.039 22.567 27.032 17.731 52.561 35.462 76.59 54.806 45.053 38.686 69.081 85.432 70.583 138.626v1.612c1.502 17.731-1.502 30.627-1.502 30.627v3.224c-1.502 4.836-1.502 9.672-3.004 14.507-7.509 38.686-25.53 66.089-51.060 82.208-27.032 17.731-60.070 19.343-94.611 8.060-10.512-3.224-22.526-9.672-34.54-17.731-4.505-1.612-7.509-4.836-12.014-6.448-16.519-8.060-30.035-8.060-45.053 0-4.505 3.224-7.509 4.836-12.014 8.060-12.014 6.448-22.526 14.507-34.54 17.731-15.018 4.836-28.533 6.448-42.049 6.448-19.523 0-37.544-4.836-52.561-14.507-25.53-16.119-43.551-45.134-51.060-82.208-1.502-4.836-3.004-9.672-3.004-14.507v-3.224c0 0-3.004-12.895-1.502-30.627z" />
<glyph unicode="&#xe90b;" glyph-name="close" d="M512 910.711c-255.612 0-463.238-207.481-463.238-462.711 0-255.164 207.659-462.711 463.238-462.711 255.645 0 463.238 207.514 463.238 462.711 0 255.263-207.56 462.711-463.238 462.711zM512 960c282.486 0 512-229.39 512-512 0-282.542-229.546-512-512-512-282.387 0-512 229.489-512 512 0 282.579 229.582 512 512 512zM979.671 448c0-258.596-209.176-467.695-467.671-467.695-258.416 0-467.671 209.142-467.671 467.695 0 258.632 209.212 467.695 467.671 467.695 258.538 0 467.671-209.020 467.671-467.695zM93.091 448c0-231.206 187.301-418.406 418.909-418.406 231.685 0 418.909 187.154 418.909 418.406 0 231.328-187.179 418.406-418.909 418.406-231.653 0-418.909-187.122-418.909-418.406zM512.186 444.967l3.157 3.156-3.157 3.163-3.547-3.546 3.165-3.156 3.158 3.156-3.158 3.163-2.782-2.781 3.165-3.156zM313.265 580.408c-13.251 12.644-17.931 31.929-11.924 49.307 5.978 17.296 21.419 29.462 39.486 31.219l1.017 0.077c2.53 0.092 2.53 0.092 3.56 0.035 12.5 0.095 24.524-4.87 33.236-13.677l133.507-133.128 133.077 133.004c8.474 8.572 19.91 13.508 31.528 13.783 19.225 0.763 36.978-10.452 44.6-28.282 7.666-17.932 3.454-38.746-10.225-51.943l-133.095-133.024 133.097-132.718c18.351-18.345 18.349-48.201-0.003-66.544-18.2-18.19-47.594-18.192-65.818 0.018l-133.161 133.395-133.489-133.417c-18.202-18.188-47.596-18.186-65.796 0.004-18.353 18.343-18.354 48.199-0.001 66.546l132.79 132.717-132.384 132.627zM529.289 497.149l-34.265-0.020 17.123 17.113 17.142-17.093z" />
<glyph unicode="&#xe90c;" glyph-name="search" horiz-adv-x="989" d="M596.657 166.495c-70.602 0-139.82 19.208-200.354 55.589-5.034 3.053-10.068 6.233-14.976 9.54l-274.102-277.052c-11.83-11.957-27.561-18.572-44.425-18.572-16.738 0-32.469 6.615-44.425 18.572-11.83 11.957-18.374 27.858-18.374 44.903 0 16.918 6.544 32.819 18.374 44.903l270.452 272.982c-3.272 4.071-6.418 8.268-9.565 12.593-49.082 68.182-75.133 148.83-75.133 233.294 0 218.793 176.065 396.752 392.527 396.752s392.527-177.96 392.527-396.752c0-218.793-176.065-396.752-392.527-396.752zM596.657 896.398c-181.728 0-329.602-149.466-329.602-333.15 0-70.853 21.772-138.653 63.051-195.896 26.554-36.889 59.653-67.419 98.415-90.697 50.718-30.529 108.861-46.684 168.136-46.684 181.728 0 329.602 149.466 329.602 333.15 0 183.811-147.748 333.277-329.602 333.277z" />
<glyph unicode="&#xe90d;" glyph-name="phone" horiz-adv-x="834" d="M193.598 960c25.534-0.279 49.767-11.097 66.757-29.8 36.513-37.054 61.048-89.829 75.209-127.576 10.139-27.334 1.413-57.968-21.699-76.186l-29.146-23.167c-48.111-38.144-67.341-101.4-48.388-159.169 17.869-52.83 41.378-103.66 70.135-151.643 27.981-48.431 61.096-93.828 98.795-135.435 41.511-44.999 106.974-60.286 164.696-38.459l35.025 13.183c27.639 10.512 59.031 2.608 78.096-19.662 26.246-30.915 60.565-78.159 75-127.697 12.411-42.521-1.188-78.39-40.381-106.607-66.391-47.795-195.841-61.183-282.69-4.928-90.969 58.892-196.377 190.178-280.67 333.434-84.273 143.221-147.443 298.408-153.98 405.181-6.232 101.909 70.298 205.19 145.689 237.714 14.913 6.809 31.108 10.493 47.553 10.817zM805.502 333.076c-10.823 0.739-19.096 9.769-18.695 20.406 0.227 6.342 0.342 12.574 0.342 18.654-0.907 185.812-105.602 356.171-272.672 443.688-9.403 5.022-13.096 16.427-8.372 25.853l2.694 5.455c2.431 4.855 6.776 8.526 12.030 10.164s10.962 1.101 15.803-1.486c181.961-95.528 295.937-281.2 296.904-483.674 0-6.671-0.126-13.503-0.378-20.445-0.199-5.347-2.597-10.387-6.646-13.971s-9.405-5.407-14.847-5.054l-6.163 0.41zM677.582 342.542c-10.615 0.777-18.747 9.579-18.496 20.020 0.083 3.184 0.124 6.376 0.124 9.574-0.623 137.696-77.359 264.214-200.413 330.431-9.304 5.048-12.946 16.361-8.286 25.737l2.688 5.458c2.433 4.892 6.807 8.589 12.097 10.227s11.035 1.073 15.889-1.563c137.814-74.266 223.727-216.027 224.412-370.289 0-3.604-0.046-7.198-0.139-10.783-0.133-5.43-2.533-10.569-6.638-14.214s-9.556-5.475-15.077-5.064l-6.161 0.466zM549.524 352.038c-10.492 1.013-18.437 9.755-18.264 20.098-0.31 89.768-49.239 172.607-128.469 217.505-9.020 5.143-12.472 16.24-7.917 25.449l2.678 5.465c2.423 4.948 6.832 8.687 12.173 10.325s11.135 1.026 15.998-1.689c93.689-53.025 151.558-150.939 151.925-257.055l-0.003-1.309c-0.064-5.502-2.476-10.725-6.648-14.401s-9.724-5.469-15.306-4.942l-6.166 0.555z" />
<glyph unicode="&#xe90e;" glyph-name="download" horiz-adv-x="1422" d="M711.111 960c109.111 0 218.517-40.486 301.729-122.182 64.572-63.4 103.045-142.725 117.529-224.97 165.231-26.35 291.853-166.113 291.853-335.515 0-188.144-156.026-341.333-347.654-341.333h-774.321c-165.79 0-300.247 132.012-300.247 294.788 0 158.467 127.69 286.599 287.407 293.334-4.622 112.9 34.854 227.674 122.469 313.697 83.159 81.649 192.123 122.182 301.235 122.182v0zM711.111 897.939c-93.1 0-185.673-34.417-256.79-104.242-82.197-80.702-116.515-190.295-103.704-295.273 1.139-8.878-1.681-17.806-7.736-24.494s-14.755-10.484-23.869-10.415h-18.765c-131.865 0-237.037-103.26-237.037-232.727s105.172-232.727 237.037-232.727h774.321c157.467 0 284.444 124.669 284.444 279.273 0 145.987-113.282 265.379-258.272 278.303-14.882 1.269-26.828 12.593-28.64 27.152-9.118 77.114-43.36 151.663-103.705 210.909-71.070 69.779-164.183 104.242-257.283 104.242zM711.111 587.636c17.459 0 31.605-13.893 31.605-31.030v-333.576l120.987 108.12c12.269 10.997 33.787 10.152 44.939-1.939 11.15-12.093 10.52-33.021-2.468-44.12l-173.827-155.151c-4.516-4.062-12.783-7.602-21.235-7.758-8.388 0-14.278 1.52-21.235 7.758l-173.827 155.151c-12.365 10.895-14.638 32.154-2.468 44.12 11.738 11.545 32.67 12.937 44.939 1.939l120.987-108.12v333.576c0 17.138 14.146 31.030 31.605 31.030z" />
<glyph unicode="&#xe90f;" glyph-name="timmer" horiz-adv-x="879" d="M431.783-64c-222.691 2.322-407.695 175.311-429.393 399.383-25.124 244.971 150.744 463.238 390.565 487.619v67.338h-116.484c-18.272 1.161-33.118 16.254-34.26 34.83 0 19.737 14.846 34.83 34.26 34.83h290.069c19.414 0 34.26-15.093 34.26-34.83-1.142-18.576-15.988-33.669-34.26-34.83h-105.064v-66.177c102.78-6.966 199.851-51.084 274.081-124.227l84.508 85.914c1.142 1.161 1.142 1.161 1.142 1.161 12.562 12.771 34.26 12.771 47.964-1.161 12.562-13.932 12.562-34.83 0-48.762l-87.934-89.397c57.1-77.787 87.934-170.667 87.934-267.029 0-244.971-195.283-444.662-437.387-444.662zM431.783 755.664c-203.277 0-368.867-168.345-368.867-375.002s165.59-375.002 368.867-375.002c203.277 0 368.867 168.345 368.867 375.002s-165.59 375.002-368.867 375.002zM427.215 331.9c-19.414 0-34.26 15.093-34.26 34.83v243.81c0 19.737 14.846 34.83 34.26 34.83s34.26-15.093 34.26-34.83v-243.81c0-19.737-14.846-34.83-34.26-34.83z" />
<glyph unicode="&#xe910;" glyph-name="menu" d="M704.272 583.715h-384.544c-18.154 0-33.008 14.162-33.008 31.47s14.854 31.47 33.008 31.47h384.544c18.154 0 33.008-14.162 33.008-31.47s-14.854-31.47-33.008-31.47zM704.272 249.344h-384.544c-18.154 0-33.008 14.162-33.008 31.47s14.854 31.47 33.008 31.47h384.544c18.154 0 33.008-14.162 33.008-31.47s-14.854-31.47-33.008-31.47zM704.272 416.923h-384.544c-18.154 0-33.008 14.162-33.008 31.47s14.854 31.47 33.008 31.47h384.544c18.154 0 33.008-14.162 33.008-31.47s-14.854-31.47-33.008-31.47zM512-64c-282.77 0-512 229.23-512 512s229.23 512 512 512c282.77 0 512-229.23 512-512s-229.23-512-512-512zM512-20.732c258.874 0 468.732 209.859 468.732 468.732s-209.859 468.732-468.732 468.732c-258.874 0-468.732-209.859-468.732-468.732s209.859-468.732 468.732-468.732z" />
<glyph unicode="&#xe911;" glyph-name="payatdelivery" horiz-adv-x="1118" d="M953.945 289.745h163.959v-260.655h-163.959l-258.981-89.367c-7.453-1.862-13.042-3.724-18.632-3.724-9.316 0-18.632 1.862-27.948 7.447l-417.351 242.036c-16.769 9.309-27.948 27.927-27.948 48.407v27.927c0 20.48 11.179 39.098 27.948 48.407 18.632 11.171 39.127 11.171 55.895 1.862l307.424-165.702 177.001 176.873c16.769 14.895 39.127 20.48 59.622 13.033l122.969-46.545zM683.785-23.040l245.939 85.644v197.353l-113.654 42.822c-7.453 3.724-14.905 1.862-20.495-3.724l-167.686-167.564 40.99-22.342 121.106 85.644 22.358-29.789-139.738-100.538-402.445 217.833c-3.726 1.862-7.453 1.862-9.316 1.862-3.726 0-7.453 0-9.316-1.862-3.726-1.862-9.316-7.447-9.316-16.756v-27.927c0-7.447 3.726-13.033 9.316-16.756l417.351-242.036c3.726-3.724 9.316-3.724 14.905-1.862zM1080.64 66.327v186.182h-111.79v-186.182h111.79zM588.763 623.011c-13.042 0-24.221 3.724-35.4 13.033l-150.917 119.156h-104.338v37.236h119.243l162.096-128.465c3.726-3.724 9.316-3.724 14.905-3.724s9.316 3.724 13.042 7.447l7.453 13.033c5.59 7.447 3.726 18.618-3.726 26.065l-158.37 126.604 22.358 29.789 158.37-126.604c24.221-18.618 27.948-52.131 9.316-76.335l-9.316-14.895c-9.316-13.033-22.358-20.48-37.263-22.342-1.863 0-3.726 0-7.453 0zM74.527 885.527h37.263v-74.473h-37.263v74.473zM652.111 475.927c-40.99 0-74.527 33.513-74.527 74.473s33.537 74.473 74.527 74.473c40.99 0 74.527-33.513 74.527-74.473s-33.537-74.473-74.527-74.473zM652.111 587.636c-20.495 0-37.263-16.756-37.263-37.236s16.769-37.236 37.263-37.236c20.495 0 37.263 16.756 37.263 37.236s-16.769 37.236-37.263 37.236zM894.323 420.073h-484.425v18.618c0 11.171-7.453 18.618-18.632 18.618h-18.632v186.182h18.632c11.179 0 18.632 7.447 18.632 18.618v18.618h55.895v-37.236h-22.358c-5.59-16.756-18.632-27.927-33.537-33.513v-117.295c16.769-5.585 27.948-18.618 33.537-33.513h415.488c5.59 16.756 18.632 27.927 33.537 33.513v117.295c-16.769 5.585-27.948 18.618-33.537 33.513h-169.549v37.236h204.949v-18.618c0-11.171 7.453-18.618 18.632-18.618h18.632v-186.182h-18.632c-11.179 0-18.632-7.447-18.632-18.618v-18.618zM789.985 736.582h197.496v-372.364h-670.742v204.8h-3.726c-14.905 0-27.948 3.724-37.263 13.033l-115.517 98.676h-160.233v279.273h508.646c13.042 0 26.084-5.585 35.4-13.033l245.939-210.385zM149.054 717.964v204.8h-111.79v-204.8h111.79zM950.218 401.455v297.891h-260.844v37.236h42.853l-210.539 182.458c-3.726 1.862-9.316 3.724-13.042 3.724h-322.329v-214.109l111.79-98.676c3.726-1.862 9.316-3.724 13.042-3.724h5.59v130.327h74.527v-37.236h-37.263v-297.891h596.215z" />
<glyph unicode="&#xe912;" glyph-name="info" d="M512-64c-14.138 0-25.6 11.462-25.6 25.6s11.462 25.6 25.6 25.6c254.493 0 460.8 206.307 460.8 460.8s-206.307 460.8-460.8 460.8c-254.493 0-460.8-206.307-460.8-460.8 0-14.138-11.462-25.6-25.6-25.6s-25.6 11.462-25.6 25.6c0 282.77 229.23 512 512 512s512-229.23 512-512c0-282.77-229.23-512-512-512zM894.395 301.212c-81.069-211.191-317.991-316.676-529.182-235.607s-316.676 317.991-235.607 529.182c81.069 211.191 317.991 316.676 529.182 235.607 13.199-5.067 19.792-19.874 14.725-33.074s-19.874-19.792-33.074-14.725c-184.792 70.935-392.099-21.364-463.034-206.156s21.364-392.099 206.156-463.034c184.792-70.935 392.099 21.364 463.034 206.156 5.067 13.199 19.874 19.792 33.074 14.725s19.792-19.874 14.725-33.074zM516.63 570.435c17.584 0 31.83-14.158 31.83-31.633v-309.359c0-17.486-14.235-31.644-31.83-31.644s-31.83 14.169-31.83 31.644v309.348c0 17.486 14.246 31.644 31.83 31.644zM515.107 621.512c-22.938 0-41.507 18.488-41.507 41.238 0 22.829 18.57 41.249 41.507 41.249s41.507-18.421 41.507-41.249c0-22.751-18.57-41.238-41.507-41.238z" />
<glyph unicode="&#xe913;" glyph-name="share" horiz-adv-x="911" d="M742.59 960c-92.809 0-168.77-74.336-168.77-165.161 0-18.548 3.134-36.482 8.965-53.161l-289.019-183.742c-30.951 33.603-75.422 55.226-124.995 55.226-92.809 0-168.77-74.336-168.77-165.162s75.962-165.161 168.77-165.161c49.777 0 94.559 21.382 125.523 55.225l288.491-183.74c-5.932-16.808-8.965-34.448-8.965-53.162 0-90.825 75.962-165.161 168.77-165.161s168.77 74.336 168.77 165.161c0 90.825-75.962 165.161-168.77 165.161-49.573 0-94.044-21.623-124.995-55.227l-289.019 183.742c5.831 16.68 8.965 34.614 8.965 53.162 0 18.714-3.033 36.354-8.965 53.161l288.491 183.743c30.964-33.844 75.746-55.226 125.523-55.226 92.809 0 168.77 74.336 168.77 165.161s-75.962 165.161-168.77 165.161zM742.59 893.936c56.324 0 101.262-43.976 101.262-99.097s-44.938-99.097-101.262-99.097c-56.324 0-101.262 43.976-101.262 99.097s44.938 99.097 101.262 99.097zM168.77 547.097c56.324 0 101.262-43.976 101.262-99.097s-44.938-99.097-101.262-99.097c-56.324 0-101.262 43.976-101.262 99.097s44.938 99.097 101.262 99.097zM742.59 200.258c56.324 0 101.262-43.976 101.262-99.097s-44.938-99.097-101.262-99.097c-56.324 0-101.262 43.976-101.262 99.097s44.938 99.097 101.262 99.097z" />
<glyph unicode="&#xe914;" glyph-name="communication" d="M291.2 434.892c0-40.144 33.6-72.259 73.6-72.259h332.8v-138.095c0-22.481-17.6-40.144-40-40.144h-353.6l-160-160.575c-11.2-12.846-33.6-3.212-33.6 14.452v146.123h-70.4c-22.4 0-40 17.663-40 40.144v403.044c0 22.481 17.6 40.144 40 40.144h251.2v-232.834zM984 878.080c22.4 0 40-17.663 40-40.144v-403.044c0-22.481-17.6-40.144-40-40.144h-72v-146.123c0-17.663-20.8-27.298-33.6-14.452l-160 160.575h-353.6c-22.4 0-40 17.663-40 40.144v403.044c0 22.481 17.6 40.144 40 40.144h619.2zM486.4 597.073c27.2 0 48 20.875 48 48.173s-20.8 48.173-48 48.173c-27.2 0-48-20.875-48-48.173s20.8-48.173 48-48.173zM675.2 597.073c25.6 0 48 20.875 48 48.173s-20.8 48.173-48 48.173c-27.2 0-48-20.875-48-48.173s20.8-48.173 48-48.173zM862.4 597.073c27.2 0 48 20.875 48 48.173s-20.8 48.173-48 48.173c-27.2 0-48-20.875-48-48.173s20.8-48.173 48-48.173z" />
<glyph unicode="&#xe915;" glyph-name="answering" d="M142.884 318.571c9.864 0 17.86-8.069 17.86-18.022v-12.015c0-9.954-7.996-18.022-17.86-18.022s-17.86 8.069-17.86 18.022v12.015c0 9.954 7.996 18.022 17.86 18.022zM142.884 462.751c9.864 0 17.86-8.069 17.86-18.022v-12.015c0-9.954-7.996-18.022-17.86-18.022s-17.86 8.069-17.86 18.022v12.015c0 9.954 7.996 18.022 17.86 18.022zM142.884 390.661c9.864 0 17.86-8.069 17.86-18.022v-12.015c0-9.954-7.996-18.022-17.86-18.022s-17.86 8.069-17.86 18.022v12.015c0 9.954 7.996 18.022 17.86 18.022zM828.368 219.447c-9.818 0.066-17.742 8.116-17.741 18.022v279.349c0 166.39-133.673 301.276-298.567 301.276s-298.567-134.886-298.567-301.276v-364.415c0.066-56.376 45.34-102.061 101.209-102.127h129.667c8.976 34.33 41.808 56.606 76.702 52.039s61.008-34.556 61.008-70.061c0-35.505-26.114-65.495-61.008-70.061s-67.726 17.708-76.702 52.039h-129.786c-75.597 0.066-136.865 61.889-136.93 138.172v66.924h-29.053c-82.015 0.132-148.468 67.188-148.599 149.947v15.619c0.009 62.761 38.721 118.888 97.042 140.696 5.398 227.347 189.59 408.811 414.958 408.811s409.56-181.464 414.958-408.811c58.239-21.777 96.934-77.782 97.042-140.455v-15.619c0.194-78.92-60.223-144.507-138.24-150.067-1.384-0.165-2.783-0.165-4.167 0h-53.224zM512 66.737c-18.892-0.066-34.173-15.539-34.173-34.603 0-14.007 8.368-26.632 21.197-31.98s27.588-2.366 37.386 7.555c9.798 9.921 12.702 24.824 7.357 37.751s-17.886 21.326-31.767 21.278zM988.279 385.134c-0.066 62.926-50.637 113.902-112.997 113.902h-29.053v-243.424h18.575c2.335 6.803 8.482 11.533 15.601 12.005s13.827-3.406 17.024-9.842c52.773 10.691 90.77 57.426 90.85 111.739v15.619zM177.771 255.372v243.424h-18.575c-2.335-6.803-8.482-11.533-15.601-12.005s-13.827 3.406-17.024 9.842c-52.773-10.691-90.77-57.426-90.85-111.739v-15.619c0.066-62.879 50.564-113.836 112.878-113.902h29.172zM512 854.199c177.155-0.41 323.312-140.044 333.395-318.517h29.886c5.21-0.006 10.417-0.287 15.598-0.841-8.812 204.761-175.887 366.19-378.999 366.19s-370.187-161.428-378.999-366.19h5.239c1.384 0.165 2.783 0.165 4.167 0h36.316c9.658 178.805 155.936 318.923 333.395 319.358zM863.732 465.754c0 9.954 7.996 18.022 17.86 18.022s17.86-8.069 17.86-18.022v-12.015c0-9.954-7.996-18.022-17.86-18.022s-17.86 8.069-17.86 18.022v12.015zM881.116 411.687c9.864 0 17.86-8.069 17.86-18.022v-12.015c0-9.954-7.996-18.022-17.86-18.022s-17.86 8.069-17.86 18.022v12.015c0 9.954 7.996 18.022 17.86 18.022zM881.116 339.597c9.864 0 17.86-8.069 17.86-18.022v-12.015c0-9.954-7.996-18.022-17.86-18.022s-17.86 8.069-17.86 18.022v12.015c0 9.954 7.996 18.022 17.86 18.022z" />
<glyph unicode="&#xe916;" glyph-name="questions" d="M512 960c-282.32 0-512-229.687-512-512s229.68-512 512-512c282.32 0 512 229.687 512 512s-229.68 512-512 512zM512-16.859c-256.33 0-464.86 208.537-464.86 464.859s208.546 464.859 464.86 464.859c256.314 0 464.86-208.537 464.86-464.859s-208.53-464.859-464.86-464.859zM507.852 714.677c-167.629-21.779-169.514-160.437-169.514-161.836 0-12.948 10.465-23.398 23.413-23.476h0.157c12.885 0 23.397 10.434 23.57 23.335 0.063 4.038 2.797 98.902 128.456 115.229 80.75 10.481 122.17-27.389 133.987-66.343 10.245-33.737 0.251-77.861-45.16-100.364-107.4-53.222-115.429-107.136-115.429-183.316 0-13.027 10.559-23.571 23.57-23.571s23.57 10.544 23.57 23.571c0 65.432 3.787 98.745 89.235 141.078 59.773 29.62 88.277 93.905 69.342 156.304-16.64 54.778-75.015 113.704-185.196 99.389zM510.963 207.423c-13.011 0-23.57-10.544-23.57-23.571v-23.099c0-13.027 10.559-23.571 23.57-23.571s23.57 10.544 23.57 23.571v23.099c0 13.027-10.559 23.571-23.57 23.571z" />
<glyph unicode="&#xe917;" glyph-name="gift" d="M998.4 704.461h-224.307c42.957 23.142 70.707 59.648 70.707 101.939 0 69.53-79.923 153.6-179.2 153.6-69.069 0-123.597-80.282-153.6-154.368-30.003 74.086-84.531 154.368-153.6 154.368-99.277 0-179.2-84.070-179.2-153.6 0-42.291 27.75-78.797 70.707-101.939h-224.307c-14.131 0-25.6-11.469-25.6-25.6v-153.6c0-14.131 11.469-25.6 25.6-25.6h76.8v-538.061c0-14.131 11.469-25.6 25.6-25.6h768c14.131 0 25.6 11.469 25.6 25.6v538.061h76.8c14.131 0 25.6 11.469 25.6 25.6v153.6c0 14.131-11.469 25.6-25.6 25.6zM409.6 550.861v102.4h204.8v-102.4h-204.8zM614.4 499.661v-512.461h-204.8v512.461h204.8zM665.6 908.8c73.011 0 128-62.106 128-102.4 0-41.626-58.624-76.8-128-76.8-37.12 0-70.246-9.472-96.819-16.998-11.981-3.379-23.45-6.707-31.181-7.731 0.666 53.453 65.434 203.93 128 203.93zM358.4 908.8c60.877 0 123.853-142.49 127.437-203.827-7.731 1.126-18.944 4.301-30.618 7.629-26.573 7.526-59.699 16.998-96.819 16.998-69.376 0-128 35.174-128 76.8 0 40.294 54.989 102.4 128 102.4zM51.2 653.261h307.2v-102.4h-307.2v102.4zM153.6 499.661h204.8v-512.461h-204.8v512.461zM870.4-12.8h-204.8v512.461h204.8v-512.461zM972.8 550.861h-307.2v102.4h307.2v-102.4z" />
<glyph unicode="&#xe918;" glyph-name="Star" d="M512 154.098l-316.12-190.884 84.219 359.033-279.592 241.060 368.17 31.011 143.323 339.867 143.323-339.867 368.17-31.011-279.592-241.060 84.219-359.033z" />
<glyph unicode="&#xe919;" glyph-name="sound" d="M27.676 252.317c-15.222 0-27.676 12.594-27.676 27.986v335.832c0 15.392 12.454 27.986 27.676 27.986h181.276l312.735 256.072c8.303 6.997 19.373 8.396 29.059 4.198s15.222-13.993 15.222-25.187v-861.969c0-11.194-6.919-20.99-16.605-25.187-2.768-1.399-6.919-2.799-11.070-2.799-5.535 0-12.454 2.799-17.989 6.997l-280.908 256.072h-211.719zM55.351 588.149v-279.86h195.114c6.919 0 12.454-2.799 17.989-6.997l244.93-222.489v741.629l-276.757-226.687c-5.535-2.799-11.070-5.597-17.989-5.597h-163.286zM715.416 329.278c63.654 0 117.622 53.173 117.622 118.941s-52.584 118.941-117.622 118.941c-15.222 0-27.676 12.594-27.676 27.986s12.454 27.986 27.676 27.986c95.481 0 172.973-78.361 172.973-174.913s-77.492-174.913-172.973-174.913c-15.222 0-27.676 12.594-27.676 27.986s12.454 27.986 27.676 27.986zM707.114 768.659c174.357 0 316.886-144.128 316.886-320.44s-142.53-320.44-316.886-320.44c-15.222 0-27.676 12.594-27.676 27.986s12.454 27.986 27.676 27.986c143.914 0 261.535 118.941 261.535 264.468s-117.622 264.468-261.535 264.468c-15.222 0-27.676 12.594-27.676 27.986s12.454 27.986 27.676 27.986z" />
<glyph unicode="&#xe91a;" glyph-name="sort" d="M629.090 726.33c0-17.076-13.843-30.918-30.918-30.918h-567.253c-17.076 0-30.918 13.843-30.918 30.918s13.843 30.918 30.918 30.918h567.253c17.076 0 30.918-13.843 30.918-30.918zM566.181 540.82c0-17.076-13.843-30.918-30.918-30.918h-504.344c-17.076 0-30.918 13.843-30.918 30.918s13.843 30.918 30.918 30.918h504.344c17.076 0 30.918-13.843 30.918-30.918zM471.817 355.31c0-17.076-13.843-30.918-30.918-30.918h-409.981c-17.076 0-30.918 13.843-30.918 30.918s13.843 30.918 30.918 30.918h409.981c17.076 0 30.918-13.843 30.918-30.918zM377.454 169.8c0-17.076-13.843-30.918-30.918-30.918h-315.617c-17.076 0-30.918 13.843-30.918 30.918s13.843 30.918 30.918 30.918h315.617c17.076 0 30.918-13.843 30.918-30.918zM827.684 244.456v481.337c0 17.372 14.083 31.454 31.454 31.454s31.454-14.083 31.454-31.454v-481.337l79.946 78.583c12.239 12.030 31.861 12.030 44.099 0l0.192-0.189c12.074-11.869 12.241-31.278 0.373-43.352-0.123-0.125-0.247-0.25-0.373-0.373l-133.437-131.162c-0.004-0.004-0.009-0.009-0.013-0.013l-0.192-0.189c-12.239-12.030-31.861-12.030-44.099 0l-0.192 0.189c-0.004 0.004-0.009 0.009-0.013 0.013l-133.437 131.162c-12.074 11.869-12.241 31.278-0.373 43.352 0.123 0.125 0.247 0.25 0.373 0.373l0.192 0.189c12.239 12.030 31.861 12.030 44.099 0l79.946-78.583z" />
<glyph unicode="&#xe91b;" glyph-name="upload" d="M78.769 917.387c-43.184 0-78.769-35.361-78.769-78.273v-782.729c0-42.912 35.586-78.273 78.769-78.273h866.462c43.184 0 78.769 35.361 78.769 78.273v782.729c0 42.912-35.586 78.273-78.769 78.273h-866.462zM78.769 865.205h866.462c15 0 26.256-11.186 26.256-26.091v-562.994l-165.333 164.291c-5.057 4.976-11.929 7.7-19.044 7.548s-13.863-3.168-18.699-8.357l-165.333-175.706-256.41 254.794c-5.636 5.514-13.473 8.209-21.333 7.338-5.491-0.577-10.659-2.86-14.769-6.523l-258.051-234.004v553.618c0 14.905 11.257 26.091 26.256 26.091v-0.007zM590.769 786.932c-72.194 0-131.282-58.716-131.282-130.455s59.088-130.455 131.282-130.455c72.194 0 131.282 58.716 131.282 130.455s-59.088 130.455-131.282 130.455zM590.769 734.75c43.814 0 78.769-34.735 78.769-78.273s-34.955-78.273-78.769-78.273c-43.814 0-78.769 34.735-78.769 78.273s34.955 78.273 78.769 78.273zM327.385 464.057l258.051-256.425c5.057-4.976 11.929-7.7 19.044-7.548s13.863 3.168 18.699 8.357l165.333 175.712 182.974-181.821v-145.946c0-14.906-11.257-26.091-26.256-26.091h-866.462c-15 0-26.256 11.185-26.256 26.091v158.176l274.872 249.495z" />
<glyph unicode="&#xe91c;" glyph-name="show" d="M864.241 238.978c-11.031 0-21.326 4.405-28.679 13.95-12.501 16.153-10.295 38.914 5.883 51.396 35.298 27.9 66.918 60.94 93.392 96.917 21.326 27.9 21.326 66.080 0 94.715-100.745 135.097-254.437 212.19-422.837 212.19-69.125 0-136.778-13.216-200.020-38.914-19.12-8.076-40.445 1.468-47.799 19.824-7.354 19.090 1.471 40.382 19.855 47.724 72.066 29.369 149.28 44.788 227.964 44.788 188.99 0 369.155-90.309 481.666-242.293 40.445-54.332 40.445-127.755 0-182.087-30.885-41.116-66.183-77.828-106.628-110.133-6.618-5.874-14.707-8.076-22.796-8.076zM512 114.894c-188.99 0-369.155 90.309-481.666 242.293-40.445 54.332-40.445 127.755 0 182.087 24.267 33.040 52.946 63.877 83.832 91.044 15.443 13.216 38.239 11.748 52.211-2.937 13.237-15.419 11.766-38.18-2.941-52.13-27.209-24.229-52.211-50.661-73.537-80.030-21.326-27.9-21.326-66.080 0-94.715 100.010-134.363 253.702-212.19 422.101-212.19 69.125 0 136.778 13.216 200.020 39.648 19.12 8.076 40.445-1.468 47.799-19.824 8.089-19.090-1.471-40.382-19.855-47.724-72.066-30.103-148.544-45.522-227.964-45.522zM506.852 270.549c-99.275 0-180.165 80.764-180.165 179.884 0 20.558 16.178 36.711 36.768 36.711s36.768-16.153 36.768-36.711c0-58.738 47.799-106.462 106.628-106.462 25.003 0 48.534 8.076 67.654 24.229 15.443 13.216 38.975 10.279 51.476-5.14 13.237-15.419 10.295-38.914-5.148-51.396-31.621-27.166-72.066-41.116-113.982-41.116zM650.249 412.988c-20.59 0-36.768 16.153-36.768 36.711 0 58.738-47.799 106.462-106.628 106.462-23.532 0-46.328-7.342-65.448-22.027-7.681-5.998-17.449-8.675-27.121-7.433s-18.443 6.298-24.355 14.041c-12.501 16.153-9.56 38.914 6.618 51.396 31.621 24.964 69.86 37.445 110.305 37.445 99.275 0 180.165-80.764 180.165-179.884 0-19.824-16.178-36.711-36.768-36.711z" />
<glyph unicode="&#xe91d;" glyph-name="hide" d="M345.227 673.267l69.3-76.88c27.697 16.67 59.274 25.005 92.325 25.005 99.275 0 180.165-80.764 180.165-179.884 0-19.824-16.178-36.711-36.768-36.711s-36.768 16.153-36.768 36.711c0 58.738-47.799 106.462-106.628 106.462-14.28 0-28.289-2.704-41.37-8.111l401.7-445.638c13.237-15.419 12.501-38.18-2.941-52.13-7.354-5.874-15.443-8.811-24.267-8.811-10.295 0-19.855 4.405-27.209 12.482l-89.966 99.602c-67.006-25.583-137.655-38.662-210.8-38.662-188.99 0-369.155 90.309-481.666 242.293-40.445 54.332-40.445 127.755 0 182.087 24.267 33.040 52.946 63.877 83.832 91.044 15.443 13.216 38.239 11.748 52.211-2.937 13.237-15.419 11.766-38.18-2.941-52.13-27.209-24.229-52.211-50.661-73.537-80.030-21.326-27.9-21.326-66.080 0-94.715 100.010-134.363 253.702-212.19 422.101-212.19 53.901 0 106.908 8.036 157.627 24.108l-73.678 81.57c-26.767-15.525-57.514-23.445-89.096-23.445-99.275 0-180.165 80.764-180.165 179.884 0 20.558 16.178 36.711 36.768 36.711s36.768-16.153 36.768-36.711c0-58.738 47.799-106.462 106.628-106.462 13.177 0 25.945 2.243 37.875 6.73l-414.383 458.767c-13.237 15.419-12.501 38.18 2.941 52.13 15.443 13.216 38.239 12.482 52.211-2.937l106.868-118.558c69.672 27.208 143.974 41.464 219.635 41.464 188.99 0 369.155-90.309 481.666-242.293 40.445-54.332 40.445-127.755 0-182.087-30.885-41.116-66.183-77.828-106.628-110.133-6.618-5.874-14.707-8.076-22.796-8.076-11.031 0-21.326 4.405-28.679 13.95-12.501 16.153-10.295 38.914 5.883 51.396 35.298 27.9 66.918 60.94 93.392 96.917 21.326 27.9 21.326 66.080 0 94.715-100.745 135.097-254.437 212.19-422.837 212.19-57.15 0-113.295-9.034-166.773-26.687z" />
<glyph unicode="&#xe91e;" glyph-name="pending" d="M512-64c-282.77 0-512 229.23-512 512s229.23 512 512 512c282.77 0 512-229.23 512-512s-229.23-512-512-512zM723.527 170.698h-29.15v115.854c0 68.765-38.12 128.561-94.178 159.206 56.058 30.645 94.178 90.441 94.178 159.206v115.854h29.15c12.707 0 22.423 9.717 22.423 22.423s-9.717 22.423-22.423 22.423h-424.549c-12.707 0-22.423-9.717-22.423-22.423s9.717-22.423 22.423-22.423h32.14v-115.854c0-68.765 38.12-128.561 94.178-159.206-56.058-30.645-94.178-90.441-94.178-159.206v-115.854h-32.14c-12.707 0-22.423-9.717-22.423-22.423s9.717-22.423 22.423-22.423h424.549c12.707 0 22.423 9.717 22.423 22.423s-9.717 22.423-22.423 22.423zM649.53 720.818v-85.209h-273.565v85.209h273.565zM375.965 286.552c0 75.492 61.291 136.782 136.782 136.782s136.782-61.291 136.782-136.782v-115.854h-10.464l-111.369 124.823c-4.485 4.485-10.464 7.474-16.444 7.474s-12.707-2.99-16.444-7.474l-111.369-124.823h-7.474v115.854z" />
<glyph unicode="&#xe91f;" glyph-name="confairmed" d="M512-64c-282.77 0-512 229.23-512 512s229.23 512 512 512c282.77 0 512-229.23 512-512s-229.23-512-512-512zM320.474 422.296c-11.051 10.361-28.409 9.801-38.77-1.251s-9.801-28.409 1.251-38.77l146.286-137.143c11.778-11.042 30.498-9.573 40.41 3.171l256 329.143c9.3 11.957 7.146 29.19-4.811 38.49s-29.19 7.146-38.49-4.811l-237.533-305.4-124.342 116.571z" />
<glyph unicode="&#xe920;" glyph-name="down" d="M512 261.441l-441.438 460.653c-15.653 16.334-41.59 16.892-57.931 1.246s-16.9-41.571-1.247-57.905l471.027-491.531c16.132-16.834 43.047-16.834 59.178 0l471.027 491.531c15.653 16.334 15.095 42.259-1.247 57.905s-42.278 15.088-57.931-1.246l-441.438-460.653z" />
<glyph unicode="&#xe921;" glyph-name="up" d="M512 634.559l-441.438-460.653c-15.653-16.334-41.59-16.892-57.931-1.246s-16.9 41.571-1.247 57.905l471.027 491.531c16.132 16.834 43.047 16.834 59.178 0l471.027-491.531c15.653-16.334 15.095-42.259-1.247-57.905s-42.278-15.088-57.931 1.246l-441.438 460.653z" />
<glyph unicode="&#xe922;" glyph-name="right" horiz-adv-x="573" d="M473.279 448l-460.653 441.438c-16.334 15.653-16.892 41.59-1.246 57.931s41.571 16.9 57.905 1.247l491.531-471.027c16.834-16.132 16.834-43.047 0-59.178l-491.531-471.027c-16.334-15.653-42.259-15.095-57.905 1.247s-15.088 42.278 1.246 57.931l460.653 441.438z" />
<glyph unicode="&#xe923;" glyph-name="left" horiz-adv-x="573" d="M100.161 448l460.653 441.438c16.334 15.653 16.892 41.59 1.246 57.931s-41.571 16.9-57.905 1.247l-491.531-471.027c-16.834-16.132-16.834-43.047 0-59.178l491.531-471.027c16.334-15.653 42.259-15.095 57.905 1.247s15.088 42.278-1.246 57.931l-460.653 441.438z" />
<glyph unicode="&#xe924;" glyph-name="linkdin" d="M0 448c0 282.77 229.23 512 512 512s512-229.23 512-512c0-282.77-229.23-512-512-512s-512 229.23-512 512zM775.758 406.526c0 102.416-50.14 150.080-117.019 150.080-54.014 0-78.106-32.416-91.616-55.090v-1.092h-0.675c0.182 0.356 0.47 0.719 0.675 1.092v47.259h-101.668c1.365-31.283 0-333.494 0-333.494h101.66v186.258c0 9.998 0.69 19.896 3.366 27.024 7.369 19.946 24.054 40.545 52.142 40.545 36.805 0 51.482-30.597 51.482-75.4v-178.436h101.653v191.253zM341.712 711.758c-37.745 0-62.439-26.816-62.439-62.047 0-34.484 23.978-62.074 60.991-62.074h0.716c38.485 0 62.414 27.59 62.414 62.074-0.732 35.232-23.929 62.047-61.682 62.047zM279.273 246.303h93.091v310.303h-93.091v-310.303z" />
<glyph unicode="&#xe925;" glyph-name="facebook" d="M0 448c0 282.77 229.23 512 512 512s512-229.23 512-512c0-282.77-229.23-512-512-512s-512 229.23-512 512zM537.434 153.212v279.305h73.44l9.732 96.25h-83.172l0.125 48.174c0 25.104 2.272 38.555 36.616 38.555h45.912v96.261h-73.45c-88.225 0-119.278-46.692-119.278-125.212v-57.788h-54.994v-96.25h54.994v-279.295h110.076z" />
<glyph unicode="&#xe926;" glyph-name="twitter" d="M0 448c0 282.77 229.23 512 512 512s512-229.23 512-512c0-282.77-229.23-512-512-512s-512 229.23-512 512zM806.788 625.657c-20.558-9.345-42.616-15.683-65.792-18.513 23.664 14.538 41.779 37.597 50.364 64.99-22.198-13.463-46.7-23.239-72.807-28.539-20.906 22.88-50.643 37.132-83.627 37.132-63.278 0-114.585-52.636-114.585-117.518 0-9.202 1.012-18.19 2.967-26.784-95.214 4.906-179.643 51.706-236.15 122.819-9.878-17.331-15.497-37.525-15.497-59.082 0-40.784 20.244-76.77 50.958-97.824-18.778 0.644-36.439 5.944-51.9 14.752v-1.468c0-56.933 39.51-104.448 91.898-115.263-9.598-2.65-19.72-4.118-30.191-4.118-7.399 0-14.554 0.752-21.57 2.184 14.589-46.728 56.891-80.708 107.012-81.64-39.196-31.51-88.618-50.237-142.298-50.237-9.249 0-18.359 0.573-27.329 1.611 50.714-33.408 110.921-52.887 175.63-52.887 210.776 0 325.99 179.107 325.99 334.437l-0.384 15.218c22.512 16.472 41.987 37.168 57.309 60.73z" />
<glyph unicode="&#xe927;" glyph-name="calender" horiz-adv-x="931" d="M305.84 872.276h321.816v56.862c0 16.91 13.629 30.618 30.442 30.618s30.442-13.708 30.442-30.618v-56.862h72.731c93.671 0 169.606-76.374 169.606-170.585v-594.861c0-94.212-75.935-170.585-169.606-170.585h-591.446c-16.813 0-30.442 13.708-30.442 30.618s13.629 30.618 30.442 30.618h591.446c60.045 0 108.722 48.957 108.722 109.349v594.861c0 60.392-48.676 109.349-108.722 109.349h-72.731v-74.358c0-16.91-13.629-30.618-30.442-30.618s-30.442 13.708-30.442 30.618v74.358h-321.816v-74.358c0-16.91-13.629-30.618-30.442-30.618s-30.442 13.708-30.442 30.618v74.358h-75.13c-60.045 0-108.722-48.957-108.722-109.349v-489.885c0-16.91-13.629-30.618-30.442-30.618s-30.442 13.708-30.442 30.618v489.885c0 94.212 75.935 170.585 169.606 170.585h75.13v56.862c0 16.91 13.629 30.618 30.442 30.618s30.442-13.708 30.442-30.618v-56.862zM187.221 504.862c-16.813 0-30.442 13.708-30.442 30.618s13.629 30.618 30.442 30.618h556.655c16.813 0 30.442-13.708 30.442-30.618s-13.629-30.618-30.442-30.618h-556.655zM248.105 334.277c-19.214 0-34.791 15.666-34.791 34.992s15.576 34.992 34.791 34.992c19.214 0 34.791-15.666 34.791-34.992s-15.576-34.992-34.791-34.992zM248.105 159.318c-19.214 0-34.791 15.666-34.791 34.992s15.576 34.992 34.791 34.992c19.214 0 34.791-15.666 34.791-34.992s-15.576-34.992-34.791-34.992zM456.851 334.277c-19.214 0-34.791 15.666-34.791 34.992s15.576 34.992 34.791 34.992c19.214 0 34.791-15.666 34.791-34.992s-15.576-34.992-34.791-34.992zM456.851 159.318c-19.214 0-34.791 15.666-34.791 34.992s15.576 34.992 34.791 34.992c19.214 0 34.791-15.666 34.791-34.992s-15.576-34.992-34.791-34.992zM665.596 334.277c-19.214 0-34.791 15.666-34.791 34.992s15.576 34.992 34.791 34.992c19.214 0 34.791-15.666 34.791-34.992s-15.576-34.992-34.791-34.992zM665.596 159.318c-19.214 0-34.791 15.666-34.791 34.992s15.576 34.992 34.791 34.992c19.214 0 34.791-15.666 34.791-34.992s-15.576-34.992-34.791-34.992z" />
<glyph unicode="&#xe928;" glyph-name="tick" horiz-adv-x="1347" d="M414.101 138.841l791.243 792.999c41.644 41.591 72.184 33.273 105.499 0l8.329-8.318c33.316-33.273 41.644-66.545 0-105.363l-852.322-853.999c-41.644-41.591-72.184-33.273-105.499 0l-333.155 332.727c-41.644 41.591-33.316 72.091 0 105.363l8.329 8.318c33.316 33.273 66.631 41.591 105.499 0l272.077-271.727z" />
<glyph unicode="&#xe929;" glyph-name="close2" d="M1005.929 941.951c-24.094 24.066-65.054 24.066-91.558 0l-402.372-401.899-402.372 401.899c-24.094 24.066-65.054 24.066-91.558 0-24.094-24.066-24.094-64.978 0-91.45l402.372-401.899-402.372-401.899c-24.094-24.066-24.094-64.978 0-91.45 12.047-12.033 28.913-19.253 45.779-19.253s33.732 7.22 45.779 19.253l402.372 401.899 402.372-401.899c12.047-12.033 28.913-19.253 45.779-19.253s33.732 7.22 45.779 19.253c24.094 24.066 24.094 64.978 0 91.45l-402.372 401.899 402.372 401.899c24.094 24.066 24.094 64.978 0 91.45z" />
<glyph unicode="&#xe92a;" glyph-name="profile" d="M668.406 472.836c84.643-53.729 136.165-144.796 136.165-245.879 0-12.749-10.12-22.767-23.001-22.767s-23.001 10.017-23.001 22.767c0 84.692-43.242 161.187-115.005 206.721-11.040 7.285-13.801 20.945-7.36 31.873 7.36 10.928 21.161 13.66 32.201 7.285zM647.245 606.704c0-71.032-56.122-129.314-126.045-133.868-1.84-0.911-3.68-0.911-5.52-0.911h-3.68c-136.165 0-246.57-109.28-246.57-244.058 0-12.749-10.12-22.767-23.001-22.767s-23.001 10.017-23.001 22.767c0 130.225 86.483 239.505 205.168 276.842-29.441 24.588-47.842 61.014-47.842 101.994 0 73.764 60.722 133.868 135.245 133.868s135.245-60.104 135.245-133.868zM511.080 518.369c49.682 0 89.244 40.069 89.244 88.334s-40.482 88.334-89.244 88.334c-48.762 0-89.243-40.069-89.243-88.334s39.562-88.334 89.243-88.334zM512-64c-282.77 0-512 229.23-512 512s229.23 512 512 512c282.77 0 512-229.23 512-512s-229.23-512-512-512zM512-15.238c255.839 0 463.238 207.399 463.238 463.238s-207.399 463.238-463.238 463.238c-255.839 0-463.238-207.399-463.238-463.238s207.399-463.238 463.238-463.238z" />
<glyph unicode="&#xe92b;" glyph-name="logo" horiz-adv-x="4491" d="M2313.841 628.706h10.291v-563.309c0-71.172-63.106-129.397-140.231-129.397h-16.805v557.286c0 74.479 66.038 135.42 146.745 135.42zM1580.779 839.529h9.54v-514.733l252.053 242.688c53.249 51.267 139.828 50.72 192.395-1.223l6.7-6.62-286.613-275.961c-4.463-4.303-9.171-8.208-14.081-11.738 6.465-4.335 12.616-9.281 18.387-14.829l282.307-271.83-10.95-10.816c-50.218-49.636-132.961-50.162-183.839-1.17l-256.359 246.84v-157.332c0-69.744-58.506-126.805-130.008-126.805h-15.58v770.822c0 72.995 61.224 132.707 136.048 132.707zM476.307 246.331c-25.727-29.301-62.774-47.325-104.944-47.225l-187.074 0.456c-10.175 0.033-24.178-3.852-26.363-24.28l-0.52-73.276c-0.208-23.368 17.888-20.651 29.52-20.651h265.62c12.673 0.802 23.762 9.708 23.762 22.778v142.198zM0.001 77.503l0.035 9.663 1.677 108.232c-0.046 14.261-0.416 27.019 2.393 41.236v7.381h1.688c14.766 56.788 69.065 100.373 131.423 100.373h313.629c13.517 7.392 21.877 11.433 25.369 31.572v85.199c-2.532 8.984-7.331 17.556-20.917 20.662h-314.45c-77.355 0-139.748 61.497-139.401 137.222l0.046 9.663h496.795c75.1 0 135.516-73.164 129.434-149.891v-538.311h-16.119c-38.342 0-73.077 15.942-97.625 41.391-25.935-28.455-63.769-46.279-105.661-45.889l-268.222 2.494c-64.694 0.612-119.374 44.464-135.366 103.111h-0.624v2.371c-2.729 10.754-4.151 21.987-4.105 33.521zM823.061 120.682l287.99 361.872h-221.627c-75.84 0-135.085 62.177-135.583 136.655l-0.068 9.496h488.644c117.762 0 128.577-72.23 61.976-155.96l-310.459-389.893 223.157 0.924c72.474 0.301 132.817-61.097 133.305-132.269l0.113-15.508h-482.364c-61.647 0-89.501 17-101.835 38.163-24.77 42.561 13.218 91.801 56.75 146.519zM3109.312 387.765v-4.024c0-43.209-37.725-78.22-84.258-78.22h-220.48c-25.358 0-45.92-19.088-45.92-42.629v-206.043c0-23.541 20.562-42.629 45.92-42.629h220.48c46.532 0 84.258-35.011 84.258-78.22h-341.92c-54.010 0-97.781 40.644-97.781 90.784v270.196c0 50.14 43.77 90.784 97.781 90.784h341.92zM3590.524 387.765c63.795 0 115.524-51.053 115.524-114.038v-176.38c0-89.113-73.186-161.347-163.449-161.347h-144.21c-90.274 0-163.449 72.234-163.449 161.347v129.071c0 89.113 73.175 161.347 163.449 161.347h192.135zM3590.524 302.504h-167.46c-56.197 0-101.752-44.969-101.752-100.443v-80.357c0-55.474 45.555-100.454 101.752-100.454h94.861c56.197 0 101.752 44.98 101.752 100.454v152.022c0 15.87-13.076 28.778-29.153 28.778zM3831.677 275.918c0 61.771 54.399 111.847 121.504 111.847h175.413c11.237 0 22.088-3.745 30.551-10.537l17.741-14.228 17.741 14.228c8.474 6.792 19.314 10.537 30.551 10.537h144.548c67.104 0 121.504-50.076 121.504-111.847v-339.907h-5.933c-46.321 0-83.878 34.571-83.878 77.211v257.739c0 20.161-17.752 36.492-39.643 36.492h-97.539c-21.89 0-39.643-16.331-39.643-36.492v-334.961h-19.955c-46.333 0-83.889 34.582-83.889 77.222v255.808c0 20.15-17.741 36.492-39.643 36.492h-111.561c-21.89 0-39.643-16.341-39.643-36.492v-255.808c0-42.64-37.556-77.222-83.878-77.222h-14.349v339.918zM2575.39-3.765c0-33.269-28.119-60.235-62.809-60.235s-62.82 26.966-62.82 60.235c0 33.269 28.13 60.235 62.82 60.235s62.809-26.966 62.809-60.235zM2245.614 809.412c-43.244 0-78.518 33.826-78.518 75.294s35.274 75.294 78.518 75.294c43.244 0 78.518-33.826 78.518-75.294s-35.274-75.294-78.518-75.294z" />
<glyph unicode="&#xe92c;" glyph-name="motor" horiz-adv-x="668" d="M449.257 762.182c-2.896 2.186-6.394 3.419-10.015 3.531h-47.262c7.481 4.963 14.275 10.899 20.205 17.653h97.336c9.703 0 17.57 7.904 17.57 17.653v35.307h122.988c9.703 0 17.57 7.904 17.57 17.653s-7.866 17.653-17.57 17.653h-122.988v17.653c0.112 8.745-6.166 16.255-14.759 17.653l-98.917 16.594c-20.022 23.163-49.056 36.466-79.591 36.466s-59.569-13.303-79.591-36.466l-98.917-16.594c-8.593-1.399-14.871-8.908-14.759-17.653v-17.653h-122.988c-9.703 0-17.57-7.904-17.57-17.653s7.866-17.653 17.57-17.653h122.988v-35.307c0-9.75 7.866-17.653 17.57-17.653h97.336c5.93-6.755 12.724-12.691 20.205-17.653h-47.262c-3.621-0.111-7.119-1.345-10.015-3.531-123.866-18.713-218.391-111.923-218.391-224.199v-315.114c0-51.195 47.262-92.681 105.418-92.681h52.709v-70.614h70.279v-35.307c0-48.749 39.331-88.267 87.848-88.267h35.139c48.517 0 87.848 39.519 87.848 88.267v35.307h70.279v70.614h52.709c58.156 0 105.418 41.486 105.418 92.681v315.114c0 112.276-94.525 205.486-218.391 224.199zM491.951 874.281v-55.608h-58.858c4.031 11.333 6.111 23.272 6.149 35.307-0.003 10.107-1.483 20.159-4.392 29.834l57.101-9.533zM333.824 924.593c38.814 0 70.279-31.615 70.279-70.614s-31.465-70.614-70.279-70.614c-38.814 0-70.279 31.615-70.279 70.614s31.465 70.614 70.279 70.614zM175.697 818.673v55.608l57.101 9.533c-2.909-9.675-4.389-19.727-4.392-29.834 0.039-12.035 2.118-23.974 6.149-35.307h-58.858zM404.103 730.405c5.271 0 10.542 0 15.637 0l-14.056-141.228h-143.72l-14.056 141.228c5.095 0 10.366 0 15.637 0h140.557zM404.103 24.267c0-29.249-23.599-52.96-52.709-52.96h-35.139c-29.11 0-52.709 23.711-52.709 52.96v176.535c0 29.249 23.599 52.96 52.709 52.96h35.139c29.11 0 52.709-23.711 52.709-52.96v-176.535zM474.381 94.881h-35.139v105.921c0 48.749-39.331 88.267-87.848 88.267h-35.139c-48.517 0-87.848-39.519-87.848-88.267v-105.921h-35.139v176.535c0.075 32.12 11.044 63.254 31.098 88.267h218.743c20.243-24.918 31.292-56.101 31.274-88.267v-176.535zM474.381 394.99h-281.115v70.614h281.115v-70.614zM632.509 222.869c0-31.6-31.45-57.374-70.279-57.374h-52.709v105.921c-0.024 31.032-8.272 61.498-23.895 88.267h23.895v141.228h-351.394v-141.228h23.719c-15.484-26.819-23.664-57.263-23.719-88.267v-105.921h-52.709c-38.829 0-70.279 25.774-70.279 57.374v315.114c0 91.445 76.252 168.061 177.805 187.48l15.461-155.703c0.906-9.054 8.513-15.934 17.57-15.888h175.697c9.057-0.046 16.664 6.834 17.57 15.888l15.461 155.703c101.553-19.419 177.805-96.035 177.805-187.48v-315.114z" />
<glyph unicode="&#xe92d;" glyph-name="link" d="M498.010 754.384l135.285 135.362c39.717 39.739 90.604 64.577 145.214 69.544 79.433 6.209 155.143-28.563 203.548-94.381 21.099-29.805 34.752-63.335 39.717-99.349 9.929-73.27-13.653-144.055-64.54-194.972l-228.371-228.502c-43.44-43.465-100.533-67.060-161.349-67.060s-117.909 23.595-161.349 67.060c-6.206 6.209-12.411 12.419-17.376 19.87-11.17 13.66-9.929 34.772 3.723 47.191v0c14.894 14.902 39.717 13.66 53.369-2.484 3.723-4.967 7.447-8.693 12.411-13.66 29.787-29.805 68.263-45.949 110.462-45.949 40.958 0 80.674 16.144 110.462 45.949l225.888 226.018c27.305 27.321 44.681 62.093 48.405 99.349 4.965 62.093-26.064 121.702-84.398 152.748-7.447 3.726-14.894 7.451-22.341 9.935-58.334 17.386-117.909 2.484-158.867-38.498l-139.008-139.088c-13.653-13.66-37.234-13.66-50.887 0v0c-13.653 14.902-13.653 37.256 0 50.916zM524.074 139.665c13.653 13.66 13.653 37.256 0 50.916v0c-13.653 13.66-37.234 13.66-50.887 0l-136.526-136.604c-40.958-40.981-99.292-55.884-157.625-38.498-7.447 2.484-14.894 4.967-22.341 8.693-98.050 52.158-111.703 177.586-39.717 249.613l229.612 229.744c29.787 29.805 68.263 45.949 110.462 45.949s80.674-16.144 110.462-45.949c4.965-4.967 9.929-11.177 14.894-16.144 12.411-17.386 37.234-19.87 53.369-4.967l1.241 1.242c12.411 12.419 13.653 31.046 3.723 45.949-6.206 8.693-13.653 17.386-21.099 24.837-45.922 45.949-109.221 70.786-175.001 65.818-57.093-3.726-110.462-29.805-150.179-69.544l-228.371-226.018c-88.121-88.172-88.121-233.469 0-321.641 43.44-43.465 100.533-67.060 161.349-67.060s117.909 23.595 161.349 67.060l135.285 136.604z" />
<glyph unicode="&#xe92e;" glyph-name="email" horiz-adv-x="1631" d="M152.274 960c-44.524 0-84.553-11.207-112.576-39.109-28.023-27.906-39.698-68.342-39.698-112.594v-720.593c0-44.186 11.522-84.123 39.698-111.999s68.886-39.705 113.761-39.705h1326.026c43.93 0 84.224 12.115 111.983 40.296 27.759 28.187 39.105 68.297 39.105 113.186v720.593c0 43.554-11.499 83.219-39.105 110.816-27.606 27.591-67.215 39.109-110.798 39.109h-1328.396zM1509.702 881.186l-655.903-531.555c-27.898-13.655-49.128-13.655-77.026 0l-655.31 530.963c447.341 3.205 1016.146 3.205 1388.239 0.592zM76.433 820.148l455.636-369.778-454.451-386.962c-1.871 263.411-1.777 516.983-1.185 756.74zM1554.14 820.148c0.592-258.719 0.592-524.201-1.778-756.74l-453.859 386.962 455.637 369.778zM592.505 401.78c49.303-39.741 99.501-81.584 148.719-120.297 46.965-23.486 101.161-23.486 148.126 0 49.59 38.789 99.387 80.21 148.719 120.297l456.821-389.334c-452.081-0.948-950.014-0.008-1359.206 0.588l456.821 388.746z" />
<glyph unicode="&#xe92f;" glyph-name="WhatsApp" d="M1024 461.187c0-275.49-225.041-498.813-502.693-498.813-88.144 0-170.951 22.528-242.995 62.066l-278.312-88.439 90.738 267.628c-45.773 75.162-72.135 163.317-72.135 257.559 0 275.49 225.064 498.813 502.704 498.813 277.675 0 502.693-223.323 502.693-498.813zM521.307 880.56c-233.062 0-422.639-188.132-422.639-419.374 0-91.762 29.912-176.742 80.509-245.874l-52.804-155.75 162.418 51.621c66.731-43.816 146.671-69.37 232.528-69.37 233.028 0 422.639 188.109 422.639 419.351s-189.599 419.396-422.65 419.396zM775.157 346.305c-3.106 5.086-11.31 8.158-23.62 14.268-12.334 6.11-72.932 35.703-84.196 39.765-11.298 4.073-19.536 6.121-27.739-6.11-8.203-12.242-31.824-39.765-39.026-47.923-7.191-8.181-14.37-9.205-26.704-3.083-12.311 6.11-52.008 19.035-99.078 60.678-36.625 32.404-61.36 72.408-68.551 84.662-7.179 12.231-0.751 18.842 5.404 24.929 5.552 5.484 12.334 14.279 18.489 21.413 6.178 7.145 8.226 12.231 12.311 20.4 4.13 8.158 2.071 15.292-1.024 21.424-3.072 6.11-27.739 66.276-38.002 90.761-10.263 24.462-20.514 20.389-27.716 20.389-7.179 0-15.406 1.024-23.62 1.024s-21.572-3.061-32.87-15.292c-11.287-12.242-43.11-41.825-43.11-101.979 0-60.166 44.134-118.295 50.313-126.441 6.155-8.146 85.22-135.623 210.489-184.582 125.281-48.936 125.281-32.609 147.877-30.561 22.574 2.037 72.886 29.571 83.194 58.106 10.24 28.581 10.24 53.055 7.179 58.152z" />
<glyph unicode="&#xe930;" glyph-name="a" horiz-adv-x="928" d="M703.487 394.75c-37.998-43.315-92.715-69.959-154.998-69.811l-276.301 0.675c-15.028 0.049-35.71-5.694-38.937-35.893l-0.768-108.32c-0.307-34.543 26.419-30.528 43.6-30.528h392.311c18.717 1.185 35.095 14.351 35.095 33.671v210.206zM0.002 145.178l0.051 14.285 2.476 159.995c-0.068 21.081-0.615 39.941 3.535 60.957v10.911h2.493c21.808 83.947 102.006 148.377 194.106 148.377h463.218c19.964 10.927 32.311 16.901 37.469 46.672v125.946c-3.74 13.281-10.827 25.953-30.894 30.544h-464.43c-114.25 0-206.402 90.909-205.89 202.85l0.068 14.285h733.747c110.92 0 200.152-108.156 191.169-221.578v-795.764h-23.806c-56.63 0-107.932 23.566-144.188 61.187-38.305-42.064-94.184-68.412-156.057-67.836l-396.153 3.686c-95.55 0.905-176.311 65.729-199.93 152.425h-0.922v3.505c-4.030 15.898-6.131 32.503-6.063 49.552v0z" />
<glyph unicode="&#xe931;" glyph-name="personal" horiz-adv-x="1118" d="M857.763 448.869c161.709-102.574 260.141-276.428 260.141-469.406 0-24.34-19.335-43.463-43.943-43.463s-43.943 19.124-43.943 43.463c0 161.684-82.612 307.722-219.714 394.649-21.093 13.908-26.366 39.986-14.062 60.849 14.062 20.862 40.427 26.078 61.52 13.908zM817.335 704.435c0-135.606-107.22-246.873-240.806-255.565-3.515-1.739-7.031-1.739-10.546-1.739h-7.031c-260.141 0-471.066-208.625-471.066-465.929 0-24.34-19.335-43.463-43.943-43.463s-43.943 19.124-43.943 43.463c0 248.611 165.225 457.236 391.969 528.516-56.247 46.941-91.401 116.482-91.401 194.716 0 140.822 116.009 255.565 258.383 255.565s258.383-114.744 258.383-255.565zM557.194 535.796c94.916 0 170.498 76.496 170.498 168.638s-77.339 168.638-170.498 168.638c-93.159 0-170.498-76.496-170.498-168.638s75.582-168.638 170.498-168.638z" />
<glyph unicode="&#xe932;" glyph-name="notification" horiz-adv-x="829" d="M791.842 258.954c23.926-15.754 37.598-42.76 37.598-69.767 0-46.136-38.738-84.396-85.451-84.396h-658.539c-46.713 0-85.451 37.134-85.451 84.396 0 27.007 13.672 54.013 37.598 69.767 28.484 18.004 75.196 79.895 75.196 282.444 0 189.046 116.213 265.565 201.663 295.947-1.139 6.752-2.279 14.629-2.279 21.38 0 56.264 45.574 101.275 102.541 101.275s102.541-45.011 102.541-101.275c0-6.752-1.139-14.629-2.279-21.38 85.451-31.508 201.663-106.901 201.663-295.947 0-201.424 46.713-263.314 75.196-282.444zM414.72 914.989c-31.902 0-56.967-24.756-58.106-56.264 0-3.376 1.139-5.626 1.139-9.002 22.787 4.501 66.082 10.127 112.795 0 1.139 3.376 1.139 5.626 1.139 9.002 0 31.508-25.065 56.264-56.967 56.264zM743.989 148.677c21.647 0 39.877 18.004 39.877 38.259 0 12.378-6.836 24.756-18.229 32.633s-21.647 16.879-30.762 29.257c0 0-1.139 0-1.139 0h-489.916c-12.533 0-22.787 10.127-22.787 22.505s10.254 22.505 22.787 22.505h465.99c-25.065 56.264-37.598 138.409-37.598 245.31 0 171.042-107.098 236.308-195.967 261.064h-1.139c-21.647 6.752-41.016 9.002-59.246 9.002-35.32 0-60.385-7.877-60.385-7.877h-1.139c-88.869-24.756-195.967-90.022-195.967-261.064 0-169.916-31.902-276.818-94.565-319.578-11.393-6.752-18.229-19.13-18.229-32.633 0-21.38 18.229-39.385 39.877-39.385h658.539zM426.113-64c-70.639 0-131.024 51.763-141.278 120.404l-3.418 25.881h289.393l-3.418-25.881c-10.254-68.642-70.639-120.404-141.278-120.404zM513.843 37.275h-175.458c14.811-33.758 50.131-56.264 87.729-56.264s72.918 22.505 87.729 56.264zM207.36 282.585c1.139-1.125 1.139-3.376 2.279-4.501 0-1.125 0-3.376 0-4.501 0-3.376-1.139-6.752-2.279-9.002s-2.279-4.501-4.557-6.752c-4.557-4.501-10.254-6.752-15.951-6.752s-11.393 2.251-14.811 6.752c-4.557 4.501-6.836 10.127-6.836 15.754 0 1.125 0 3.376 0 4.501 0 2.251 0 3.376 1.139 4.501s1.139 2.251 2.279 3.376c0 1.125 1.139 2.251 2.279 3.376 7.975 9.002 23.926 9.002 31.902 0 1.139-1.125 1.139-2.251 2.279-3.376s2.279-2.251 2.279-3.376z" />
<glyph unicode="&#xe933;" glyph-name="instagram" d="M0 448c0 282.77 229.23 512 512 512s512-229.23 512-512c0-282.77-229.23-512-512-512s-512 229.23-512 512zM621.241 729.6h-192.883c-109.151 0-197.959-88.807-197.959-197.959v-192.883c0-109.151 88.807-197.959 197.959-197.959h192.883c109.151 0 197.959 88.807 197.959 197.959v192.883c0 109.151-88.807 197.959-197.959 197.959zM685.536 562.976c-18.212 0-33.027 14.788-33.027 32.959s14.815 32.959 33.027 32.959c18.178 0 32.959-14.788 32.959-32.959s-14.781-32.959-32.959-32.959zM648.313 435.2c0-68.105-55.408-123.513-123.513-123.513s-123.513 55.408-123.513 123.513c0 68.105 55.408 123.513 123.513 123.513s123.513-55.408 123.513-123.513z" />
<glyph unicode="&#xe934;" glyph-name="arrow-pointing-to-down" d="M850.394 322.007c-18.592 18.596-48.745 18.596-67.337 0l-223.444-223.444v813.823c0 26.294-21.323 47.613-47.613 47.613-26.298 0-47.613-21.319-47.613-47.613v-813.823l-223.444 223.436c-18.6 18.592-48.745 18.592-67.337 0-18.6-18.596-18.6-48.741 0-67.337l304.726-304.718c9.29-9.294 21.483-13.945 33.668-13.945s24.367 4.651 33.668 13.945l304.726 304.726c18.596 18.596 18.596 48.741 0 67.337z" />
<glyph unicode="&#xe935;" glyph-name="search1" d="M496 240c22.094 0 40-17.906 40-40s-17.906-40-40-40h-56c-22.094 0-40 17.906-40 40s17.906 40 40 40zM823.999 454c0 22.094-17.906 40-40 40h-344c-22.094 0-40-17.906-40-40s17.906-40 40-40h344c22.094 0 40 17.906 40 40zM440 654h344c22.094 0 40 17.906 40 40s-17.906 40-40 40h-344c-22.094 0-40-17.906-40-40s17.906-40 40-40zM280 240h-40c-22.094 0-40-17.906-40-40s17.906-40 40-40h40c22.094 0 40 17.906 40 40s-17.906 40-40 40zM280 494h-40c-22.094 0-40-17.906-40-40s17.906-40 40-40h40c22.094 0 40 17.906 40 40s-17.906 40-40 40zM280 734h-40c-22.094 0-40-17.906-40-40s17.906-40 40-40h40c22.094 0 40 17.906 40 40s-17.906 40-40 40zM1012.288 4.289c15.617-15.625 15.617-40.953 0-56.57-7.812-7.812-18.055-11.719-28.289-11.719s-20.477 3.906-28.289 11.711l-67.664 67.664c-26.945-16.102-58.43-25.375-92.047-25.375-99.25 0-180 80.75-180 180s80.75 180 180 180 180-80.75 180-180c0-36.727-11.062-70.906-30.023-99.414zM795.999 70c55.141 0 100 44.859 100 100s-44.859 100-100 100-100-44.859-100-100 44.859-100 100-100zM863.999 960h-703.999c-88.226 0-160-71.773-160-160v-703.999c0-88.226 71.773-160 160-160h412c22.094 0 40 17.906 40 40s-17.906 40-40 40h-412c-44.109 0-80 35.891-80 80v703.999c0 44.109 35.891 80 80 80h703.999c44.109 0 80-35.891 80-80v-396c0-22.094 17.906-40 40-40s40 17.906 40 40v396c0 88.226-71.773 160-160 160z" />
<glyph unicode="&#xe936;" glyph-name="pin" d="M512 800c-137.85 0-250-112.15-250-250s112.15-250 250-250c23.282 0 46.35 3.206 68.564 9.53 21.248 6.046 33.568 28.174 27.522 49.422-6.050 21.246-28.174 33.57-49.424 27.52-15.088-4.294-30.788-6.472-46.662-6.472-93.738 0-170 76.262-170 170s76.262 170 170 170c93.738 0 170-76.262 170-170 0-16.678-2.4-33.14-7.134-48.926-6.346-21.16 5.664-43.458 26.824-49.804 21.162-6.342 43.456 5.662 49.804 26.824 6.97 23.246 10.506 47.438 10.506 71.906 0 137.85-112.15 250-250 250zM801.754 840.072c-77.42 77.336-180.324 119.928-289.754 119.928-109.432 0-212.334-42.592-289.754-119.93-77.412-77.332-120.114-180.176-120.24-289.676 0.078-79.71 22.218-154.494 67.682-228.63 39.37-64.194 90.516-120.206 144.664-179.506 53.094-58.142 107.992-118.266 151.836-187.63 7.33-11.596 20.094-18.628 33.812-18.628h24c13.718 0 26.482 7.032 33.812 18.63 43.844 69.364 98.742 129.488 151.836 187.63 54.148 59.298 105.294 115.31 144.664 179.506 45.466 74.136 67.604 148.922 67.682 228.716-0.124 109.414-42.828 212.258-120.24 289.59zM650.572 196.202c-47.208-51.698-95.782-104.894-138.572-166.074-42.788 61.18-91.364 114.376-138.572 166.074-102.638 112.402-191.282 209.478-191.422 354.186 0.208 181.748 148.244 329.612 329.994 329.612s329.786-147.864 329.994-329.526c-0.14-144.794-88.784-241.868-191.422-354.272z" />
<glyph unicode="&#xe937;" glyph-name="phone-call" d="M535.997 837.816c0.674 0 1.33 0.004 2 0.004 97.48 0 188.824-37.688 257.373-106.236 69.114-69.114 106.918-161.236 106.45-259.395-0.104-22.090 17.718-40.084 39.81-40.19 0.066 0 0.128 0 0.194 0 21.998 0 39.888 17.784 39.994 39.81 0.57 119.674-45.556 232.018-129.88 316.345-83.668 83.67-195.076 129.666-313.929 129.666-0.73 0-1.466-0.002-2.198-0.004-22.092-0.106-39.914-18.1-39.81-40.19 0.106-22.026 17.994-39.81 39.996-39.81zM1023.9 134.892c-1.428 39.61-17.928 76.574-46.458 104.084-55.862 53.866-102.664 84.962-147.292 97.858-61.5 17.774-118.452 1.61-169.282-48.032-0.076-0.074-0.154-0.15-0.23-0.226l-54.132-53.73c-33.622 18.888-98.982 60.454-170.468 131.942l-5.264 5.26c-71.016 71.014-112.846 136.746-131.878 170.506l53.678 54.082c0.076 0.076 0.15 0.152 0.226 0.23 49.642 50.828 65.804 107.784 48.032 169.28-12.896 44.626-43.99 91.43-97.858 147.292-27.51 28.53-64.474 45.030-104.080 46.458-39.598 1.426-77.664-12.362-107.162-38.842l-1.148-1.032c-0.534-0.478-1.054-0.972-1.56-1.478-58.72-58.716-89.5-140.92-89.016-237.722 0.82-164.44 91.198-352.499 241.758-503.057 0.126-0.126 0.25-0.248 0.376-0.372 28.304-28.264 60.44-56.232 95.524-83.134 17.53-13.442 42.638-10.126 56.082 7.404 13.442 17.532 10.128 42.64-7.404 56.082-32.472 24.896-62.082 50.666-88.008 76.592-0.124 0.124-0.248 0.248-0.374 0.37-135.77 135.924-217.238 302.813-217.956 446.517-0.372 74.552 22.054 136.778 64.862 180.028l0.306 0.276c29.076 26.096 73.096 24.508 100.216-3.616 103.562-107.396 96.062-158.098 50.302-205.022l-74.148-74.706c-11.628-11.716-14.866-29.372-8.15-44.452 1.882-4.228 47.418-104.854 160.828-218.264l5.264-5.258c113.396-113.398 214.022-158.932 218.25-160.816 15.080-6.718 32.736-3.478 44.452 8.15l74.692 74.136c46.932 45.766 97.636 53.276 205.036-50.29 28.124-27.12 29.712-71.14 3.62-100.21l-0.282-0.314c-42.9-42.458-104.462-64.866-178.204-64.866-0.606 0-1.216 0-1.824 0.004-58.942 0.294-127.196 16.452-197.378 46.724-20.284 8.752-43.822-0.6-52.572-20.886-8.75-20.284 0.602-43.822 20.886-52.572 81.124-34.992 158.058-52.912 228.664-53.266 0.75-0.002 1.496-0.004 2.244-0.004 95.828 0.002 177.216 30.758 235.476 89.020 0.508 0.508 1 1.026 1.478 1.56l1.038 1.154c26.472 29.494 40.266 67.55 38.838 107.158zM738.915 674.901c-42.906 42.908-84.086 54.294-103.878 59.768-21.298 5.89-43.326-6.598-49.214-27.892-5.888-21.292 6.598-43.326 27.892-49.214 16.184-4.476 40.64-11.24 68.632-39.23 26.946-26.946 34.104-51.272 38.842-67.37l0.578-1.958c5.148-17.394 21.076-28.658 38.338-28.658 3.76-0.002 7.584 0.534 11.372 1.656 21.182 6.27 33.272 28.526 27 49.708l-0.542 1.836c-6.17 20.964-17.654 59.988-59.020 101.354z" />
<glyph unicode="&#xe938;" glyph-name="add-user" d="M1024 136c0-22.094-17.906-40-40-40h-120v-120c0-22.094-17.906-40-40-40s-40 17.906-40 40v120h-120c-22.094 0-40 17.906-40 40s17.906 40 40 40h120v120c0 22.094 17.906 40 40 40s40-17.906 40-40v-120h120c22.094 0 40-17.906 40-40zM704-24c0-22.094-17.906-40-40-40h-544c-66.172 0-120 53.828-120 120v74c0 69.031 29.609 134.625 81.227 179.977 41.789 36.727 121.82 91.156 250.477 119.445-70.313 54.164-115.703 139.164-115.703 234.578 0 163.211 132.789 296 296 296s296-132.789 296-296-132.789-296-296-296c-219.805 0-337.555-82.602-377.969-118.117-34.336-30.172-54.031-73.859-54.031-119.883v-74c0-22.055 17.945-40 40-40h544c22.094 0 40-17.906 40-40zM512 448c119.102 0 216 96.898 216 216s-96.898 216-216 216-216-96.898-216-216 96.898-216 216-216z" />
<glyph unicode="&#xe939;" glyph-name="briefcase" d="M984 295.964c22.092 0 40 17.908 40 40v264c0 88.224-71.776 159.998-160 159.998h-172.148v52.15c0 60.614-49.312 109.926-109.926 109.926h-139.852c-60.614 0-109.926-49.312-109.926-109.926v-52.148h-172.148c-88.224 0-160-71.776-160-160v-466c0-88.224 71.776-160 160-160h704c88.224 0 160 71.776 160 160 0 22.092-17.908 40-40 40s-40-17.908-40-40c0-44.112-35.888-80-80-80h-704c-44.112 0-80 35.888-80 80v284.074h394v-60.074c0-22.092 17.908-40 40-40s40 17.908 40 40v60.074h390v-82.074c0-22.092 17.908-40 40-40zM412.148 812.112c0 16.502 13.424 29.926 29.926 29.926h139.852c16.502 0 29.926-13.424 29.926-29.926v-52.148h-199.704v52.148zM80 498.036v101.926c0 44.112 35.888 80 80 80h704c44.112 0 80-35.888 80-80v-101.926h-864z" />
<glyph unicode="&#xe93a;" glyph-name="smartphone" d="M826 255.756c22.092 0 40 17.91 40 40v504.244c0 88.224-71.776 160-160 160h-388c-88.224 0-160-71.776-160-160v-704c0-88.224 71.776-160 160-160h388c88.224 0 160 71.776 160 160 0 22.092-17.908 40-40 40s-40-17.908-40-40c0-44.112-35.888-80-80-80h-388c-44.112 0-80 35.888-80 80v704c0 44.112 35.888 80 80 80h388c44.112 0 80-35.888 80-80v-504.244c0-22.090 17.908-40 40-40zM552 117.756c0-22.091-17.909-40-40-40s-40 17.909-40 40c0 22.091 17.909 40 40 40s40-17.909 40-40zM592 777.756c0 22.092-17.908 40-40 40h-80c-22.092 0-40-17.908-40-40s17.908-40 40-40h80c22.092 0 40 17.91 40 40z" />
<glyph unicode="&#xe93b;" glyph-name="user" d="M942.773 309.977c-33.938 29.82-75.094 55.586-122.336 76.578-20.195 8.969-43.828-0.125-52.797-20.313s0.125-43.82 20.313-52.797c39.836-17.703 74.164-39.086 102.016-63.563 34.336-30.172 54.031-73.859 54.031-119.883v-74c0-22.055-17.945-40-40-40h-784c-22.055 0-40 17.945-40 40v74c0 46.023 19.695 89.711 54.031 119.883 40.414 35.516 158.164 118.117 377.969 118.117 163.211 0 296 132.789 296 296s-132.789 296-296 296-296-132.789-296-296c0-95.414 45.391-180.414 115.703-234.578-128.656-28.281-208.688-82.719-250.477-119.445-51.617-45.352-81.227-110.945-81.227-179.977v-74c0-66.172 53.828-120 120-120h784c66.172 0 120 53.828 120 120v74c0 69.031-29.609 134.625-81.227 179.977zM296 664c0 119.102 96.898 216 216 216s216-96.898 216-216-96.898-216-216-216-216 96.898-216 216z" />
<glyph unicode="&#xe93c;" glyph-name="suitcase" d="M864 797.93h-172.148v52.141c0 60.617-49.312 109.93-109.93 109.93h-139.852c-60.609 0-109.922-49.312-109.922-109.93v-52.141h-172.148c-88.227 0-160-71.781-160-160v-466c0-88.227 71.773-160 160-160h326c22.094 0 40 17.906 40 40s-17.906 40-40 40h-326c-44.109 0-80 35.891-80 80v304.070h394v-60.070c0-22.094 17.906-40 40-40s40 17.906 40 40v60.070h390v-50.070c0-22.094 17.906-40 40-40 22.086 0 39.992 17.906 39.992 40v212c0 88.219-71.773 160-159.992 160zM412.148 850.070c0 16.508 13.422 29.93 29.922 29.93h139.852c16.5 0 29.93-13.422 29.93-29.93v-52.141h-199.703zM80 556v81.93c0 44.109 35.891 80 80 80h704c44.109 0 80-35.891 80-80v-81.93zM1007.382 128.258l-38.492 27.734c0.078 2.008 0.117 4.008 0.117 6.008 0 2.43-0.078 4.859-0.187 7.289-0.039 0.781-0.086 1.562-0.133 2.344-0.047 0.766-0.070 1.531-0.125 2.297l39.711 30.328c15.648 11.953 20.273 33.508 10.906 50.82l-18 33.281c-9.414 17.406-30.148 25.312-48.758 18.594l-47.289-17.062c-5.953 4.484-12.227 8.484-18.727 12.086-0.578 0.32-1.148 0.648-1.727 0.961-1.633 0.875-3.281 1.711-4.937 2.531-0.859 0.422-1.711 0.844-2.578 1.25-0.766 0.367-1.516 0.766-2.289 1.117l-8.5 47.258c-3.43 19.047-20.008 32.914-39.367 32.914h-38c-19.953 0-36.852-14.703-39.617-34.453l-6.406-45.766c-11.773-5.328-22.852-12.070-33.016-20.094l-46.414 14.492c-18.695 5.836-38.875-2.719-47.664-20.219l-17.633-35.070c-8.984-17.891-3.375-39.664 13.141-50.969l37.812-25.891c-0.133-2.656-0.203-5.336-0.203-8.031 0-2.437 0.070-4.883 0.187-7.32 0.031-0.836 0.094-1.664 0.141-2.5 0.055-0.836 0.078-1.672 0.148-2.508l-38.328-30.359c-15.703-12.445-19.781-34.586-9.539-51.805l18.758-31.523c9.789-16.461 29.883-23.672 47.914-17.195l43.937 15.805c9.586-7.297 19.945-13.477 30.906-18.43l8.508-47.25c3.43-19.055 20.008-32.914 39.367-32.914h36c19.648 0 36.391 14.273 39.492 33.68l7.367 46.016c13.383 5.922 25.852 13.656 37.148 23.039l45.461-13.453c18.555-5.492 38.398 3.094 47.086 20.391l16.172 32.164c8.828 17.555 3.594 38.922-12.352 50.414zM729.132 166.438c0.008 0.18 0.031 0.367 0.039 0.547 0.086 1.328 0.195 2.664 0.352 3.992 0.008 0.109 0.031 0.227 0.039 0.344 0.172 1.398 0.367 2.805 0.609 4.203 0.016 0.070 0.023 0.148 0.039 0.219 0.242 1.398 0.523 2.797 0.844 4.18 3.352 14.594 10.695 27.672 20.836 38.016 0.25 0.266 0.508 0.531 0.766 0.789 0.812 0.805 1.633 1.594 2.477 2.359 0.164 0.148 0.328 0.289 0.484 0.437 1.703 1.523 3.469 2.984 5.297 4.359 0.125 0.094 0.242 0.195 0.367 0.281 2.906 2.172 5.969 4.133 9.156 5.898 0.234 0.133 0.469 0.266 0.703 0.391 1 0.539 2.023 1.062 3.055 1.562 0.32 0.164 0.656 0.305 0.977 0.453 1.633 0.766 3.297 1.477 4.984 2.133 0.68 0.258 1.367 0.523 2.055 0.766 0.797 0.289 1.602 0.562 2.414 0.82 1.109 0.352 2.219 0.68 3.344 0.984 6.703 1.836 13.758 2.828 21.039 2.828 7.43 0 14.617-1.039 21.453-2.945 1.109-0.305 2.211-0.641 3.305-0.992 0.648-0.211 1.297-0.43 1.937-0.656 0.969-0.344 1.922-0.711 2.867-1.094 0.906-0.359 1.797-0.734 2.687-1.125 0.961-0.422 1.922-0.859 2.859-1.328 0.703-0.336 1.391-0.695 2.070-1.062 0.773-0.398 1.523-0.82 2.281-1.25 0.641-0.367 1.281-0.719 1.914-1.102 1.203-0.734 2.391-1.5 3.562-2.297 0.57-0.391 1.125-0.797 1.687-1.203 0.805-0.578 1.594-1.172 2.375-1.773 0.508-0.391 1.008-0.781 1.5-1.18 1.172-0.961 2.32-1.945 3.437-2.969 0.359-0.328 0.695-0.664 1.047-1 0.883-0.836 1.742-1.687 2.594-2.562 9.758-10.133 16.867-22.812 20.234-36.937 0.25-1.070 0.492-2.141 0.703-3.219 0.094-0.492 0.18-0.992 0.266-1.484 0.18-1.039 0.344-2.078 0.484-3.125 0.062-0.492 0.133-0.992 0.187-1.484 0.125-1.102 0.227-2.203 0.305-3.305 0.031-0.437 0.078-0.867 0.102-1.305 0.086-1.531 0.141-3.062 0.141-4.602 0-2.758-0.148-5.531-0.43-8.281-0.016-0.125-0.031-0.25-0.047-0.375-0.133-1.227-0.289-2.453-0.477-3.672-0.078-0.492-0.18-0.977-0.266-1.469-0.141-0.82-0.281-1.648-0.453-2.469-2.852-13.773-9.273-26.242-18.227-36.437-1.156-1.32-2.336-2.609-3.562-3.836-0.281-0.273-0.57-0.539-0.852-0.805-0.953-0.937-1.937-1.836-2.93-2.711-0.531-0.469-1.070-0.945-1.617-1.406-1.109-0.922-2.242-1.82-3.391-2.68-0.727-0.539-1.461-1.055-2.203-1.562-0.633-0.445-1.266-0.867-1.906-1.289-1.203-0.781-2.422-1.531-3.664-2.25-0.734-0.43-1.469-0.852-2.219-1.258-0.805-0.43-1.617-0.844-2.437-1.25-0.875-0.43-1.758-0.836-2.648-1.234-0.937-0.422-1.891-0.836-2.852-1.219-1.148-0.461-2.305-0.906-3.484-1.312-0.57-0.195-1.141-0.398-1.719-0.586-1.633-0.523-3.281-1.016-4.953-1.437-6.297-1.602-12.883-2.453-19.664-2.453-7.414 0-14.586 1.031-21.406 2.93-1.148 0.32-2.281 0.664-3.414 1.031-0.641 0.211-1.273 0.422-1.914 0.648-1 0.352-1.984 0.734-2.969 1.133-0.969 0.383-1.914 0.789-2.859 1.211-0.875 0.391-1.742 0.789-2.602 1.211-0.742 0.359-1.469 0.742-2.195 1.125-0.711 0.375-1.414 0.766-2.117 1.164-1 0.578-2 1.164-2.977 1.781-0.852 0.539-1.703 1.078-2.539 1.648-0.664 0.453-1.32 0.93-1.969 1.406-0.695 0.508-1.383 1.023-2.062 1.555-0.586 0.453-1.172 0.898-1.742 1.375-1.109 0.914-2.195 1.859-3.258 2.828-0.492 0.453-0.969 0.922-1.453 1.383-0.742 0.727-1.477 1.461-2.203 2.219-9.695 10.094-16.766 22.711-20.125 36.773-0.266 1.109-0.516 2.234-0.727 3.352-0.094 0.461-0.172 0.922-0.25 1.375-0.187 1.078-0.352 2.156-0.5 3.234-0.062 0.469-0.125 0.937-0.18 1.406-0.125 1.117-0.227 2.234-0.305 3.359-0.031 0.414-0.078 0.836-0.102 1.258-0.086 1.531-0.141 3.062-0.141 4.594 0 1.469 0.047 2.945 0.133 4.43z" />
<glyph unicode="&#xe93d;" glyph-name="fire" d="M745.743 679.578c-78.805 72.117-146.867 134.399-146.867 240.422 0 14.586-7.938 28.023-20.719 35.047-12.789 7.031-28.383 6.547-40.703-1.266-1.828-1.164-3.953-2.492-6.344-4-39.75-24.992-145.344-91.391-242.86-191.766-126.242-129.938-190.25-266.001-190.25-404.415 0-225.344 178.735-409.548 401.36-417.313 3.523-0.188 7.070-0.289 10.641-0.289 0.672 0 1.336 0.023 2.008 0.031 0.664-0.008 1.32-0.031 1.984-0.031 102.922 0 201.774 37.953 278.368 106.86 16.422 14.781 17.758 40.070 2.984 56.492-14.781 16.422-40.070 17.758-56.492 2.984-12.93-11.633-26.648-22.156-41.008-31.547 6.586 19.602 10.156 40.563 10.156 62.344 0 76.235-45.391 119.281-85.438 157.266-37.688 35.742-67.453 63.969-67.453 117.602 0 15.586-9.055 29.758-23.195 36.305-14.148 6.547-30.805 4.273-42.688-5.813-7.242-6.141-177.227-152.203-177.227-305.36 0-19.047 2.734-37.469 7.82-54.906-85.758 61.234-141.821 161.844-141.821 275.376 0 168.914 123.297 344.266 348.594 497.649 8.766-37.625 25.047-73.266 49.102-107.727 32.391-46.414 74.914-85.328 116.039-122.961 80.992-74.117 157.492-144.133 158.258-267.211 0.203-31.766-4.047-63.203-12.625-93.43-6.031-21.258 6.305-43.375 27.555-49.399 21.266-6.039 43.375 6.305 49.406 27.555 10.641 37.5 15.906 76.453 15.664 115.774-0.984 158.016-98.352 247.118-184.25 325.727zM392 133.131c0 67.883 53.43 143.93 99.485 195.266 18.445-41.445 49.344-70.75 76.024-96.047 38.633-36.641 60.492-59.32 60.492-99.219 0-64.141-52.211-116.375-116.656-117.102-1.82 0.016-3.641 0.031-5.445 0.070-0.367 0.016-0.727 0.016-1.094 0.031-0.391 0.008-0.781 0.031-1.172 0.047-62.117 3.289-111.633 54.484-111.633 116.953z" />
<glyph unicode="&#xe93e;" glyph-name="delivery-truck" d="M901.62 441.252l-22.906 116.526c-6.272 32.708-17.092 57.678-33.084 76.342-20.614 24.060-49.532 36.778-83.63 36.778h-134v160.202c0 22.092-17.908 40-40 40h-548c-22.092 0-40-17.908-40-40v-566.2c0-87.17 70.082-158.232 156.854-159.92 16.49-46.598 60.972-80.080 113.146-80.080 52.146 0 96.606 33.444 113.12 80h247.76c16.512-46.556 60.974-80 113.12-80s96.606 33.444 113.12 80h126.88c22.092 0 40 17.908 40 40v144c0 74.478-52.468 136.934-122.38 152.352zM628 590.9h134c12.208 0 28.926 0 38.162-48.268 0.012-0.066 0.026-0.132 0.038-0.2l19.566-99.532h-191.766v148zM270 104.9c-22.056 0-40 17.944-40 40s17.944 40 40 40 40-17.944 40-40-17.944-40-40-40zM744 104.9c-22.056 0-40 17.944-40 40s17.944 40 40 40 40-17.944 40-40-17.944-40-40-40zM944 184.9h-86.88c-16.512 46.556-60.974 80-113.12 80s-96.606-33.444-113.12-80h-247.76c-16.512 46.556-60.974 80-113.12 80-52.116 0-96.558-33.406-113.092-79.922-42.684 1.632-76.908 36.846-76.908 79.922v526.2h468v-348.2h-348c-22.092 0-40-17.908-40-40s17.908-40 40-40h666c3.708 0 7.282 0.544 10.69 1.488 37.826-4.328 67.31-36.522 67.31-75.488v-104z" />
<glyph unicode="&#xe93f;" glyph-name="businessman" d="M1021.404 82.556c-4.502 21.626-25.688 35.506-47.312 31.006-21.63-4.504-35.512-25.686-31.008-47.314 2.594-12.456-0.494-25.226-8.472-35.036-4.622-5.68-14.922-15.212-31.998-15.212h-180.614c-22.092 0-40-17.908-40-40s17.908-40 40-40h180.614c36.658 0 70.942 16.306 94.064 44.738 23.236 28.574 32.25 65.684 24.726 101.818zM552.612 414.462c131.414-12.104 250.954-82.538 325.406-193.576 12.3-18.348 37.152-23.252 55.498-10.948 18.35 12.304 23.25 37.152 10.948 55.5-65.636 97.892-160.95 169.060-269.624 204.824 66.23 49.658 109.16 128.778 109.16 217.738 0 149.982-122.020 272-272 272s-272-122.018-272-272c0-89.018 42.984-168.184 109.286-217.834-60.742-19.996-117.742-51.094-167.626-92.124-91.464-75.234-155.058-180.174-179.064-295.486-7.524-36.134 1.49-73.244 24.726-101.818 23.12-28.432 57.406-44.738 94.064-44.738h174.614c22.092 0 40 17.908 40 40s-17.908 40-40 40h-174.618c-17.076 0-27.376 9.53-31.998 15.212-7.978 9.812-11.066 22.58-8.472 35.038 39.168 188.136 197.96 328.404 386.374 347.77l-76.362-347.418c-2.926-13.326 1.138-27.224 10.784-36.87l80.004-80.014c7.5-7.504 17.676-11.718 28.288-11.718 10.61 0 20.784 4.216 28.286 11.718l79.996 80.014c9.646 9.648 13.71 23.544 10.782 36.868l-76.452 347.862zM320 688c0 105.87 86.13 192 192 192s192-86.13 192-192c0-102.674-81.010-186.778-182.47-191.764-3.172 0.058-6.348 0.096-9.53 0.096-3.122 0-6.24-0.046-9.358-0.102-101.54 4.898-182.642 89.038-182.642 191.77zM509.998 34.574l-36.234 36.24 36.234 164.85 36.23-164.852-36.23-36.238z" />
<glyph unicode="&#xe940;" glyph-name="first-aid-kit" d="M984 308.964c22.092 0 40 17.908 40 40v240c0 88.224-71.776 160-160 160h-172.148v40c0 66.168-53.832 120-120 120h-119.704c-66.168 0-120-53.832-120-120v-40h-172.148c-88.224 0-160-71.776-160-160v-441.926c0-88.224 71.776-160 160-160h704c88.224 0 160 71.776 160 160 0 22.092-17.908 40-40 40s-40-17.908-40-40c0-44.112-35.888-80-80-80h-704c-44.112 0-80 35.888-80 80v441.926c0 44.112 35.888 80 80 80h704c44.112 0 80-35.888 80-80v-240c0-22.090 17.908-40 40-40zM611.852 748.964h-199.704v40c0 22.056 17.944 40 40 40h119.704c22.056 0 40-17.944 40-40v-40zM512 170.964c22.092 0 40 17.908 40 40v106h110c22.092 0 40 17.908 40 40s-17.908 40-40 40h-110v114c0 22.092-17.908 40-40 40s-40-17.908-40-40v-114h-110c-22.092 0-40-17.908-40-40s17.908-40 40-40h110v-106c0-22.090 17.908-40 40-40z" />
</font>
</defs>
</svg>
